<svg xmlns="http://www.w3.org/2000/svg" xmlns:xlink="http://www.w3.org/1999/xlink" width="1920" zoomAndPan="magnify" viewBox="0 0 1440 809.999993" height="1080" preserveAspectRatio="xMidYMid meet" version="1.0"><defs><g/><clipPath id="d17d2995a0"><path d="M 242.320312 293 L 533.101562 293 L 533.101562 516.886719 L 242.320312 516.886719 Z M 242.320312 293 " clip-rule="nonzero"/></clipPath></defs><g clip-path="url(#d17d2995a0)"><path fill="#000000" d="M 268.179688 497.421875 C 251.355469 479.53125 242.320312 459.464844 242.320312 426.9375 C 242.320312 369.703125 282.457031 318.402344 340.828125 293.039062 L 355.414062 315.574219 C 300.933594 345.074219 290.285156 383.359375 286.035156 407.496094 C 294.808594 402.949219 306.292969 401.363281 317.546875 402.410156 C 347.019531 405.140625 370.246094 429.359375 370.246094 459.464844 C 370.246094 461.339844 370.15625 463.210938 369.972656 465.074219 C 369.789062 466.941406 369.515625 468.792969 369.148438 470.632812 C 368.785156 472.46875 368.328125 474.285156 367.785156 476.078125 C 367.242188 477.875 366.613281 479.636719 365.894531 481.367188 C 365.179688 483.101562 364.378906 484.792969 363.496094 486.445312 C 362.613281 488.097656 361.652344 489.707031 360.613281 491.265625 C 359.570312 492.824219 358.457031 494.328125 357.269531 495.773438 C 356.082031 497.222656 354.824219 498.613281 353.5 499.9375 C 352.175781 501.261719 350.792969 502.519531 349.34375 503.710938 C 347.894531 504.898438 346.394531 506.011719 344.835938 507.054688 C 343.28125 508.097656 341.675781 509.058594 340.023438 509.941406 C 338.371094 510.828125 336.683594 511.625 334.953125 512.34375 C 333.222656 513.0625 331.460938 513.691406 329.667969 514.238281 C 327.878906 514.78125 326.0625 515.234375 324.226562 515.601562 C 322.390625 515.96875 320.539062 516.242188 318.675781 516.425781 C 316.8125 516.609375 314.945312 516.699219 313.070312 516.699219 C 295.542969 516.699219 278.78125 508.6875 268.179688 497.421875 Z M 431.539062 497.421875 C 414.714844 479.53125 405.679688 459.464844 405.679688 426.9375 C 405.679688 369.703125 445.816406 318.402344 504.1875 293.039062 L 518.773438 315.574219 C 464.292969 345.074219 453.640625 383.359375 449.394531 407.496094 C 458.167969 402.949219 469.652344 401.363281 480.90625 402.410156 C 510.378906 405.140625 533.605469 429.359375 533.605469 459.464844 C 533.605469 461.339844 533.515625 463.210938 533.332031 465.074219 C 533.148438 466.941406 532.875 468.792969 532.507812 470.632812 C 532.144531 472.46875 531.6875 474.285156 531.144531 476.078125 C 530.601562 477.875 529.972656 479.636719 529.253906 481.367188 C 528.539062 483.101562 527.738281 484.792969 526.855469 486.445312 C 525.972656 488.097656 525.011719 489.707031 523.972656 491.265625 C 522.929688 492.824219 521.816406 494.328125 520.628906 495.773438 C 519.441406 497.222656 518.183594 498.613281 516.859375 499.9375 C 515.535156 501.261719 514.148438 502.519531 512.703125 503.710938 C 511.253906 504.898438 509.753906 506.011719 508.195312 507.054688 C 506.640625 508.097656 505.035156 509.058594 503.382812 509.941406 C 501.730469 510.828125 500.042969 511.625 498.3125 512.34375 C 496.582031 513.0625 494.820312 513.691406 493.027344 514.238281 C 491.234375 514.78125 489.421875 515.234375 487.585938 515.601562 C 485.75 515.96875 483.898438 516.242188 482.035156 516.425781 C 480.171875 516.609375 478.304688 516.699219 476.429688 516.699219 C 458.902344 516.699219 442.140625 508.6875 431.539062 497.421875 Z M 431.539062 497.421875 " fill-opacity="1" fill-rule="nonzero"/></g><g fill="#000000" fill-opacity="1"><g transform="translate(587.801659, 462.517985)"><g><path d="M 16.1875 -10.90625 C 16.519531 -11.675781 16.796875 -14.457031 17.015625 -19.25 C 17.234375 -24.039062 17.34375 -29.738281 17.34375 -36.34375 L 17.34375 -60.453125 C 17.34375 -67.398438 17.234375 -73.265625 17.015625 -78.046875 C 16.796875 -82.835938 16.519531 -85.507812 16.1875 -86.0625 L 5.609375 -88.875 L 6.109375 -96.96875 L 53.03125 -96.96875 C 64.695312 -96.96875 73.363281 -95.039062 79.03125 -91.1875 C 84.707031 -87.332031 87.546875 -81.492188 87.546875 -73.671875 C 87.546875 -67.617188 84.929688 -62.550781 79.703125 -58.46875 C 74.472656 -54.394531 67.5625 -52.085938 58.96875 -51.546875 L 59.96875 -52.859375 C 70.425781 -52.421875 78.460938 -50.050781 84.078125 -45.75 C 89.691406 -41.457031 92.5 -35.675781 92.5 -28.40625 C 92.5 -19.488281 88.726562 -12.523438 81.1875 -7.515625 C 73.644531 -2.503906 63.101562 0 49.5625 0 L 6.109375 0 L 5.609375 -8.265625 Z M 39.484375 -29.234375 C 39.484375 -24.828125 39.535156 -21 39.640625 -17.75 C 39.753906 -14.507812 39.863281 -12.28125 39.96875 -11.0625 C 41.070312 -10.625 42.613281 -10.265625 44.59375 -9.984375 C 46.582031 -9.710938 48.398438 -9.578125 50.046875 -9.578125 C 55.992188 -9.578125 60.59375 -11.035156 63.84375 -13.953125 C 67.09375 -16.878906 68.71875 -20.925781 68.71875 -26.09375 C 68.71875 -32.375 66.953125 -36.972656 63.421875 -39.890625 C 59.898438 -42.804688 54.34375 -44.265625 46.75 -44.265625 C 44.875 -44.265625 43.21875 -44.265625 41.78125 -44.265625 C 40.351562 -44.265625 38.867188 -44.15625 37.328125 -43.9375 L 37.328125 -54.84375 C 38.984375 -54.726562 40.441406 -54.644531 41.703125 -54.59375 C 42.972656 -54.539062 44.378906 -54.515625 45.921875 -54.515625 C 51.867188 -54.515625 56.328125 -55.972656 59.296875 -58.890625 C 62.273438 -61.804688 63.765625 -66.019531 63.765625 -71.53125 C 63.765625 -76.488281 62.304688 -80.425781 59.390625 -83.34375 C 56.472656 -86.257812 51.984375 -87.71875 45.921875 -87.71875 L 39.8125 -87.71875 C 39.695312 -86.726562 39.613281 -84.382812 39.5625 -80.6875 C 39.507812 -77 39.484375 -72.679688 39.484375 -67.734375 Z M 39.484375 -29.234375 "/></g></g></g><g fill="#000000" fill-opacity="1"><g transform="translate(687.404771, 462.517985)"><g><path d="M 2.640625 0 L 2.140625 -7.765625 L 12.890625 -10.40625 C 12.992188 -11.613281 13.128906 -13.734375 13.296875 -16.765625 C 13.460938 -19.796875 13.597656 -23.289062 13.703125 -27.25 C 13.816406 -31.21875 13.875 -35.070312 13.875 -38.8125 L 13.875 -59.640625 C 13.875 -63.492188 13.84375 -67.289062 13.78125 -71.03125 C 13.726562 -74.78125 13.675781 -78.390625 13.625 -81.859375 C 13.570312 -85.328125 13.488281 -88.460938 13.375 -91.265625 C 13.269531 -94.078125 13.109375 -96.414062 12.890625 -98.28125 L 0.65625 -99.9375 L 0.328125 -107.046875 L 31.875 -115.140625 L 36.5 -112.328125 C 36.28125 -107.703125 36.113281 -103.210938 36 -98.859375 C 35.894531 -94.515625 35.816406 -89.585938 35.765625 -84.078125 C 35.710938 -78.578125 35.6875 -71.859375 35.6875 -63.921875 L 35.515625 -39.640625 C 35.515625 -31.929688 35.566406 -25.40625 35.671875 -20.0625 C 35.785156 -14.726562 35.953125 -11.507812 36.171875 -10.40625 L 46.921875 -7.765625 L 46.578125 0 Z M 2.640625 0 "/></g></g></g><g fill="#000000" fill-opacity="1"><g transform="translate(736.6282, 462.517985)"><g><path d="M 44.609375 1.328125 C 36.890625 1.328125 30.113281 -0.238281 24.28125 -3.375 C 18.445312 -6.519531 13.875 -10.875 10.5625 -16.4375 C 7.257812 -22 5.609375 -28.359375 5.609375 -35.515625 C 5.609375 -43.660156 7.476562 -50.597656 11.21875 -56.328125 C 14.96875 -62.054688 19.867188 -66.40625 25.921875 -69.375 C 31.984375 -72.351562 38.429688 -73.84375 45.265625 -73.84375 C 52.640625 -73.84375 59.109375 -72.300781 64.671875 -69.21875 C 70.234375 -66.132812 74.582031 -61.8125 77.71875 -56.25 C 80.863281 -50.6875 82.4375 -44.328125 82.4375 -37.171875 C 82.4375 -29.898438 80.726562 -23.375 77.3125 -17.59375 C 73.894531 -11.8125 69.347656 -7.210938 63.671875 -3.796875 C 58.003906 -0.378906 51.648438 1.328125 44.609375 1.328125 Z M 46.25 -9.25 C 49.007812 -9.25 51.351562 -10.128906 53.28125 -11.890625 C 55.207031 -13.648438 56.691406 -16.238281 57.734375 -19.65625 C 58.773438 -23.070312 59.296875 -27.144531 59.296875 -31.875 C 59.296875 -41.351562 57.78125 -49.0625 54.75 -55 C 51.726562 -60.945312 47.6875 -63.921875 42.625 -63.921875 C 38.539062 -63.921875 35.257812 -61.800781 32.78125 -57.5625 C 30.3125 -53.320312 29.078125 -47.570312 29.078125 -40.3125 C 29.078125 -34.46875 29.816406 -29.175781 31.296875 -24.4375 C 32.785156 -19.707031 34.820312 -15.992188 37.40625 -13.296875 C 40 -10.597656 42.945312 -9.25 46.25 -9.25 Z M 46.25 -9.25 "/></g></g></g><g fill="#000000" fill-opacity="1"><g transform="translate(824.668763, 462.517985)"><g><path d="M 39.96875 37.65625 C 28.300781 37.65625 19.191406 36.054688 12.640625 32.859375 C 6.085938 29.671875 2.8125 25.269531 2.8125 19.65625 C 2.8125 16.019531 4.765625 12.632812 8.671875 9.5 C 12.578125 6.363281 17.890625 3.859375 24.609375 1.984375 L 31.71875 2.640625 C 29.070312 4.515625 26.976562 6.660156 25.4375 9.078125 C 23.894531 11.503906 23.125 14.039062 23.125 16.6875 C 23.125 20.425781 24.71875 23.3125 27.90625 25.34375 C 31.101562 27.382812 35.675781 28.40625 41.625 28.40625 C 47.6875 28.40625 52.671875 27.113281 56.578125 24.53125 C 60.484375 21.945312 62.4375 18.726562 62.4375 14.875 C 62.4375 12.113281 61.445312 10.046875 59.46875 8.671875 C 57.488281 7.296875 54.128906 6.390625 49.390625 5.953125 L 28.25 4.125 L 26.765625 3.296875 C 21.148438 3.296875 16.796875 2.25 13.703125 0.15625 C 10.617188 -1.925781 9.078125 -4.734375 9.078125 -8.265625 C 9.078125 -11.785156 10.8125 -15.054688 14.28125 -18.078125 C 17.757812 -21.109375 22.582031 -23.507812 28.75 -25.28125 L 31.390625 -22.46875 C 30.066406 -21.695312 29.019531 -20.84375 28.25 -19.90625 C 27.476562 -18.96875 27.09375 -18.0625 27.09375 -17.1875 C 27.09375 -15.863281 27.503906 -14.867188 28.328125 -14.203125 C 29.148438 -13.546875 30.390625 -13.109375 32.046875 -12.890625 L 57.484375 -10.40625 C 65.742188 -9.632812 71.851562 -7.484375 75.8125 -3.953125 C 79.78125 -0.429688 81.765625 4.1875 81.765625 9.90625 C 81.765625 15.082031 79.945312 19.765625 76.3125 23.953125 C 72.6875 28.140625 67.734375 31.46875 61.453125 33.9375 C 55.171875 36.414062 48.007812 37.65625 39.96875 37.65625 Z M 40.796875 -19.5 C 34.078125 -19.5 28.210938 -20.625 23.203125 -22.875 C 18.191406 -25.132812 14.3125 -28.273438 11.5625 -32.296875 C 8.8125 -36.316406 7.4375 -40.96875 7.4375 -46.25 C 7.4375 -51.644531 8.921875 -56.4375 11.890625 -60.625 C 14.867188 -64.8125 18.914062 -68.113281 24.03125 -70.53125 C 29.15625 -72.957031 34.96875 -74.171875 41.46875 -74.171875 C 47.632812 -74.171875 53.191406 -72.929688 58.140625 -70.453125 C 63.097656 -67.972656 66.976562 -64.640625 69.78125 -60.453125 C 72.59375 -56.273438 74 -51.539062 74 -46.25 C 74 -41.070312 72.59375 -36.472656 69.78125 -32.453125 C 66.976562 -28.441406 63.070312 -25.28125 58.0625 -22.96875 C 53.050781 -20.65625 47.296875 -19.5 40.796875 -19.5 Z M 42.125 -29.078125 C 45.425781 -29.078125 48.066406 -30.585938 50.046875 -33.609375 C 52.035156 -36.640625 53.03125 -40.742188 53.03125 -45.921875 C 53.03125 -51.535156 51.953125 -56.050781 49.796875 -59.46875 C 47.648438 -62.882812 44.816406 -64.59375 41.296875 -64.59375 C 37.878906 -64.59375 35.148438 -62.992188 33.109375 -59.796875 C 31.078125 -56.609375 30.0625 -52.367188 30.0625 -47.078125 C 30.0625 -41.679688 31.160156 -37.332031 33.359375 -34.03125 C 35.566406 -30.726562 38.488281 -29.078125 42.125 -29.078125 Z M 83.09375 -58.96875 L 60.796875 -61.125 L 55.828125 -68.890625 L 83.09375 -72.1875 Z M 83.09375 -58.96875 "/></g></g></g><g fill="#000000" fill-opacity="1"><g transform="translate(910.396815, 462.517985)"><g><path d="M 39.96875 37.65625 C 28.300781 37.65625 19.191406 36.054688 12.640625 32.859375 C 6.085938 29.671875 2.8125 25.269531 2.8125 19.65625 C 2.8125 16.019531 4.765625 12.632812 8.671875 9.5 C 12.578125 6.363281 17.890625 3.859375 24.609375 1.984375 L 31.71875 2.640625 C 29.070312 4.515625 26.976562 6.660156 25.4375 9.078125 C 23.894531 11.503906 23.125 14.039062 23.125 16.6875 C 23.125 20.425781 24.71875 23.3125 27.90625 25.34375 C 31.101562 27.382812 35.675781 28.40625 41.625 28.40625 C 47.6875 28.40625 52.671875 27.113281 56.578125 24.53125 C 60.484375 21.945312 62.4375 18.726562 62.4375 14.875 C 62.4375 12.113281 61.445312 10.046875 59.46875 8.671875 C 57.488281 7.296875 54.128906 6.390625 49.390625 5.953125 L 28.25 4.125 L 26.765625 3.296875 C 21.148438 3.296875 16.796875 2.25 13.703125 0.15625 C 10.617188 -1.925781 9.078125 -4.734375 9.078125 -8.265625 C 9.078125 -11.785156 10.8125 -15.054688 14.28125 -18.078125 C 17.757812 -21.109375 22.582031 -23.507812 28.75 -25.28125 L 31.390625 -22.46875 C 30.066406 -21.695312 29.019531 -20.84375 28.25 -19.90625 C 27.476562 -18.96875 27.09375 -18.0625 27.09375 -17.1875 C 27.09375 -15.863281 27.503906 -14.867188 28.328125 -14.203125 C 29.148438 -13.546875 30.390625 -13.109375 32.046875 -12.890625 L 57.484375 -10.40625 C 65.742188 -9.632812 71.851562 -7.484375 75.8125 -3.953125 C 79.78125 -0.429688 81.765625 4.1875 81.765625 9.90625 C 81.765625 15.082031 79.945312 19.765625 76.3125 23.953125 C 72.6875 28.140625 67.734375 31.46875 61.453125 33.9375 C 55.171875 36.414062 48.007812 37.65625 39.96875 37.65625 Z M 40.796875 -19.5 C 34.078125 -19.5 28.210938 -20.625 23.203125 -22.875 C 18.191406 -25.132812 14.3125 -28.273438 11.5625 -32.296875 C 8.8125 -36.316406 7.4375 -40.96875 7.4375 -46.25 C 7.4375 -51.644531 8.921875 -56.4375 11.890625 -60.625 C 14.867188 -64.8125 18.914062 -68.113281 24.03125 -70.53125 C 29.15625 -72.957031 34.96875 -74.171875 41.46875 -74.171875 C 47.632812 -74.171875 53.191406 -72.929688 58.140625 -70.453125 C 63.097656 -67.972656 66.976562 -64.640625 69.78125 -60.453125 C 72.59375 -56.273438 74 -51.539062 74 -46.25 C 74 -41.070312 72.59375 -36.472656 69.78125 -32.453125 C 66.976562 -28.441406 63.070312 -25.28125 58.0625 -22.96875 C 53.050781 -20.65625 47.296875 -19.5 40.796875 -19.5 Z M 42.125 -29.078125 C 45.425781 -29.078125 48.066406 -30.585938 50.046875 -33.609375 C 52.035156 -36.640625 53.03125 -40.742188 53.03125 -45.921875 C 53.03125 -51.535156 51.953125 -56.050781 49.796875 -59.46875 C 47.648438 -62.882812 44.816406 -64.59375 41.296875 -64.59375 C 37.878906 -64.59375 35.148438 -62.992188 33.109375 -59.796875 C 31.078125 -56.609375 30.0625 -52.367188 30.0625 -47.078125 C 30.0625 -41.679688 31.160156 -37.332031 33.359375 -34.03125 C 35.566406 -30.726562 38.488281 -29.078125 42.125 -29.078125 Z M 83.09375 -58.96875 L 60.796875 -61.125 L 55.828125 -68.890625 L 83.09375 -72.1875 Z M 83.09375 -58.96875 "/></g></g></g><g fill="#000000" fill-opacity="1"><g transform="translate(996.124867, 462.517985)"><g><path d="M 2.484375 0 L 1.984375 -7.765625 L 13.046875 -10.40625 C 13.160156 -10.84375 13.269531 -11.859375 13.375 -13.453125 C 13.488281 -15.054688 13.597656 -17.039062 13.703125 -19.40625 C 13.816406 -21.78125 13.875 -24.285156 13.875 -26.921875 L 14.046875 -39.3125 C 14.046875 -42.613281 13.929688 -45.554688 13.703125 -48.140625 C 13.484375 -50.734375 13.097656 -53.460938 12.546875 -56.328125 L 1.484375 -58.640625 L 1.484375 -66.078125 L 31.875 -73.515625 L 36.34375 -70.703125 C 36.007812 -67.179688 35.757812 -63.628906 35.59375 -60.046875 C 35.425781 -56.460938 35.34375 -52.414062 35.34375 -47.90625 L 35.34375 -27.09375 C 35.34375 -23.457031 35.425781 -19.988281 35.59375 -16.6875 C 35.757812 -13.382812 36.007812 -11.289062 36.34375 -10.40625 L 47.25 -7.765625 L 46.75 0 Z M 24.9375 -87.0625 C 20.425781 -87.0625 16.929688 -88.410156 14.453125 -91.109375 C 11.972656 -93.804688 10.734375 -96.914062 10.734375 -100.4375 C 10.734375 -103.957031 11.972656 -107.066406 14.453125 -109.765625 C 16.929688 -112.460938 20.425781 -113.8125 24.9375 -113.8125 C 29.457031 -113.8125 32.898438 -112.460938 35.265625 -109.765625 C 37.628906 -107.066406 38.8125 -103.957031 38.8125 -100.4375 C 38.8125 -96.914062 37.628906 -93.804688 35.265625 -91.109375 C 32.898438 -88.410156 29.457031 -87.0625 24.9375 -87.0625 Z M 24.9375 -87.0625 "/></g></g></g><g fill="#000000" fill-opacity="1"><g transform="translate(1045.348296, 462.517985)"><g><path d="M 3.140625 0 L 2.640625 -7.59375 L 12.890625 -10.40625 C 12.992188 -10.84375 13.097656 -11.832031 13.203125 -13.375 C 13.316406 -14.914062 13.425781 -16.867188 13.53125 -19.234375 C 13.644531 -21.609375 13.703125 -24.171875 13.703125 -26.921875 L 13.875 -39.484375 C 13.875 -42.898438 13.765625 -45.84375 13.546875 -48.3125 C 13.328125 -50.789062 12.941406 -53.460938 12.390625 -56.328125 L 1.8125 -58.640625 L 1.8125 -66.078125 L 30.890625 -73.515625 L 35.515625 -70.703125 L 34.53125 -60.953125 L 35.015625 -60.796875 C 38.429688 -65.191406 42.203125 -68.460938 46.328125 -70.609375 C 50.460938 -72.765625 54.785156 -73.84375 59.296875 -73.84375 C 64.035156 -73.84375 68.273438 -72.6875 72.015625 -70.375 C 75.765625 -68.0625 78.710938 -64.671875 80.859375 -60.203125 C 83.003906 -55.742188 84.078125 -50.378906 84.078125 -44.109375 L 84.078125 -27.09375 C 84.078125 -23.34375 84.128906 -19.84375 84.234375 -16.59375 C 84.347656 -13.351562 84.570312 -11.289062 84.90625 -10.40625 L 95.15625 -7.59375 L 94.65625 0 L 53.1875 0 L 52.703125 -7.59375 L 62.109375 -10.40625 C 62.328125 -11.507812 62.488281 -12.941406 62.59375 -14.703125 C 62.707031 -16.460938 62.789062 -18.441406 62.84375 -20.640625 C 62.90625 -22.847656 62.9375 -24.941406 62.9375 -26.921875 L 62.9375 -40.796875 C 62.9375 -44.984375 62.300781 -48.367188 61.03125 -50.953125 C 59.769531 -53.546875 58.117188 -55.445312 56.078125 -56.65625 C 54.046875 -57.875 51.765625 -58.484375 49.234375 -58.484375 C 46.472656 -58.484375 43.878906 -57.875 41.453125 -56.65625 C 39.035156 -55.445312 36.890625 -53.6875 35.015625 -51.375 L 35.015625 -27.09375 C 35.015625 -23.34375 35.097656 -19.84375 35.265625 -16.59375 C 35.429688 -13.351562 35.679688 -11.289062 36.015625 -10.40625 L 45.921875 -7.59375 L 45.421875 0 Z M 3.140625 0 "/></g></g></g></svg>