<svg xmlns="http://www.w3.org/2000/svg" xmlns:xlink="http://www.w3.org/1999/xlink" width="665" zoomAndPan="magnify" viewBox="0 0 498.75 131.249995" height="175" preserveAspectRatio="xMidYMid meet" version="1.0"><defs><g/><clipPath id="efeb08b8bf"><path d="M 1.292969 12.125 L 138.507812 12.125 L 138.507812 118 L 1.292969 118 Z M 1.292969 12.125 " clip-rule="nonzero"/></clipPath></defs><g clip-path="url(#efeb08b8bf)"><path fill="#000000" d="M 13.496094 108.835938 C 5.554688 100.394531 1.292969 90.925781 1.292969 75.574219 C 1.292969 48.566406 20.234375 24.359375 47.777344 12.390625 L 54.660156 23.023438 C 28.953125 36.945312 23.925781 55.011719 21.921875 66.402344 C 26.0625 64.253906 31.480469 63.507812 36.792969 64 C 50.699219 65.289062 61.660156 76.71875 61.660156 90.925781 C 61.660156 91.808594 61.617188 92.691406 61.53125 93.574219 C 61.445312 94.453125 61.3125 95.328125 61.140625 96.195312 C 60.96875 97.0625 60.753906 97.917969 60.5 98.765625 C 60.242188 99.613281 59.945312 100.445312 59.605469 101.261719 C 59.269531 102.078125 58.890625 102.875 58.472656 103.65625 C 58.058594 104.4375 57.605469 105.195312 57.113281 105.929688 C 56.621094 106.664062 56.097656 107.375 55.535156 108.058594 C 54.976562 108.742188 54.382812 109.398438 53.757812 110.023438 C 53.132812 110.648438 52.480469 111.242188 51.796875 111.804688 C 51.113281 112.363281 50.402344 112.890625 49.667969 113.382812 C 48.933594 113.875 48.175781 114.328125 47.398438 114.746094 C 46.617188 115.160156 45.820312 115.539062 45.003906 115.878906 C 44.1875 116.214844 43.355469 116.515625 42.511719 116.769531 C 41.664062 117.027344 40.808594 117.242188 39.941406 117.414062 C 39.078125 117.585938 38.203125 117.71875 37.324219 117.804688 C 36.445312 117.890625 35.5625 117.933594 34.679688 117.933594 C 26.40625 117.933594 18.5 114.152344 13.496094 108.835938 Z M 90.582031 108.835938 C 82.644531 100.394531 78.378906 90.925781 78.378906 75.574219 C 78.378906 48.566406 97.320312 24.359375 124.863281 12.390625 L 131.746094 23.023438 C 106.039062 36.945312 101.011719 55.011719 99.007812 66.402344 C 103.148438 64.253906 108.566406 63.507812 113.878906 64 C 127.785156 65.289062 138.746094 76.71875 138.746094 90.925781 C 138.746094 91.808594 138.703125 92.691406 138.617188 93.574219 C 138.53125 94.453125 138.402344 95.328125 138.230469 96.195312 C 138.058594 97.0625 137.84375 97.917969 137.585938 98.765625 C 137.328125 99.613281 137.03125 100.445312 136.695312 101.261719 C 136.355469 102.078125 135.976562 102.875 135.5625 103.65625 C 135.144531 104.4375 134.691406 105.195312 134.199219 105.929688 C 133.710938 106.664062 133.183594 107.375 132.625 108.058594 C 132.0625 108.742188 131.46875 109.398438 130.84375 110.023438 C 130.21875 110.648438 129.566406 111.242188 128.882812 111.804688 C 128.199219 112.363281 127.492188 112.890625 126.757812 113.382812 C 126.023438 113.875 125.265625 114.328125 124.484375 114.746094 C 123.707031 115.160156 122.910156 115.539062 122.09375 115.878906 C 121.277344 116.214844 120.445312 116.515625 119.597656 116.769531 C 118.753906 117.027344 117.898438 117.242188 117.03125 117.414062 C 116.164062 117.585938 115.289062 117.71875 114.410156 117.804688 C 113.53125 117.890625 112.652344 117.933594 111.765625 117.933594 C 103.496094 117.933594 95.585938 114.152344 90.582031 108.835938 Z M 90.582031 108.835938 " fill-opacity="1" fill-rule="nonzero"/></g><g fill="#000000" fill-opacity="1"><g transform="translate(157.88964, 92.365646)"><g><path d="M 7.640625 -5.140625 C 7.796875 -5.503906 7.925781 -6.816406 8.03125 -9.078125 C 8.132812 -11.335938 8.1875 -14.03125 8.1875 -17.15625 L 8.1875 -28.53125 C 8.1875 -31.800781 8.132812 -34.566406 8.03125 -36.828125 C 7.925781 -39.085938 7.796875 -40.347656 7.640625 -40.609375 L 2.65625 -41.9375 L 2.890625 -45.765625 L 25.03125 -45.765625 C 30.53125 -45.765625 34.617188 -44.851562 37.296875 -43.03125 C 39.972656 -41.207031 41.3125 -38.453125 41.3125 -34.765625 C 41.3125 -31.910156 40.078125 -29.519531 37.609375 -27.59375 C 35.140625 -25.675781 31.878906 -24.585938 27.828125 -24.328125 L 28.296875 -24.953125 C 33.234375 -24.742188 37.023438 -23.625 39.671875 -21.59375 C 42.328125 -19.5625 43.65625 -16.832031 43.65625 -13.40625 C 43.65625 -9.195312 41.875 -5.910156 38.3125 -3.546875 C 34.75 -1.179688 29.773438 0 23.390625 0 L 2.890625 0 L 2.65625 -3.890625 Z M 18.625 -13.796875 C 18.625 -11.722656 18.648438 -9.914062 18.703125 -8.375 C 18.753906 -6.84375 18.804688 -5.789062 18.859375 -5.21875 C 19.378906 -5.007812 20.109375 -4.835938 21.046875 -4.703125 C 21.984375 -4.578125 22.84375 -4.515625 23.625 -4.515625 C 26.425781 -4.515625 28.59375 -5.203125 30.125 -6.578125 C 31.664062 -7.960938 32.4375 -9.875 32.4375 -12.3125 C 32.4375 -15.28125 31.601562 -17.453125 29.9375 -18.828125 C 28.269531 -20.203125 25.644531 -20.890625 22.0625 -20.890625 C 21.175781 -20.890625 20.394531 -20.890625 19.71875 -20.890625 C 19.039062 -20.890625 18.34375 -20.835938 17.625 -20.734375 L 17.625 -25.875 C 18.394531 -25.820312 19.078125 -25.78125 19.671875 -25.75 C 20.273438 -25.726562 20.941406 -25.71875 21.671875 -25.71875 C 24.472656 -25.71875 26.578125 -26.40625 27.984375 -27.78125 C 29.390625 -29.164062 30.09375 -31.15625 30.09375 -33.75 C 30.09375 -36.09375 29.398438 -37.953125 28.015625 -39.328125 C 26.640625 -40.703125 24.523438 -41.390625 21.671875 -41.390625 L 18.78125 -41.390625 C 18.726562 -40.921875 18.6875 -39.816406 18.65625 -38.078125 C 18.632812 -36.335938 18.625 -34.300781 18.625 -31.96875 Z M 18.625 -13.796875 "/></g></g></g><g fill="#000000" fill-opacity="1"><g transform="translate(204.891448, 92.365646)"><g><path d="M 1.25 0 L 1.015625 -3.65625 L 6.078125 -4.90625 C 6.128906 -5.476562 6.191406 -6.476562 6.265625 -7.90625 C 6.347656 -9.34375 6.414062 -10.992188 6.46875 -12.859375 C 6.519531 -14.734375 6.546875 -16.550781 6.546875 -18.3125 L 6.546875 -28.140625 C 6.546875 -29.960938 6.53125 -31.753906 6.5 -33.515625 C 6.476562 -35.285156 6.453125 -36.988281 6.421875 -38.625 C 6.398438 -40.257812 6.363281 -41.738281 6.3125 -43.0625 C 6.257812 -44.394531 6.179688 -45.503906 6.078125 -46.390625 L 0.3125 -47.171875 L 0.15625 -50.515625 L 15.046875 -54.34375 L 17.234375 -53.015625 C 17.128906 -50.828125 17.050781 -48.707031 17 -46.65625 C 16.945312 -44.601562 16.90625 -42.273438 16.875 -39.671875 C 16.851562 -37.078125 16.84375 -33.910156 16.84375 -30.171875 L 16.765625 -18.703125 C 16.765625 -15.066406 16.789062 -11.988281 16.84375 -9.46875 C 16.894531 -6.945312 16.972656 -5.425781 17.078125 -4.90625 L 22.140625 -3.65625 L 21.984375 0 Z M 1.25 0 "/></g></g></g><g fill="#000000" fill-opacity="1"><g transform="translate(228.119539, 92.365646)"><g><path d="M 21.046875 0.625 C 17.410156 0.625 14.210938 -0.113281 11.453125 -1.59375 C 8.703125 -3.070312 6.546875 -5.125 4.984375 -7.75 C 3.429688 -10.375 2.65625 -13.378906 2.65625 -16.765625 C 2.65625 -20.609375 3.535156 -23.878906 5.296875 -26.578125 C 7.066406 -29.285156 9.378906 -31.335938 12.234375 -32.734375 C 15.097656 -34.140625 18.140625 -34.84375 21.359375 -34.84375 C 24.835938 -34.84375 27.890625 -34.113281 30.515625 -32.65625 C 33.140625 -31.207031 35.191406 -29.171875 36.671875 -26.546875 C 38.160156 -23.921875 38.90625 -20.921875 38.90625 -17.546875 C 38.90625 -14.109375 38.097656 -11.023438 36.484375 -8.296875 C 34.867188 -5.566406 32.722656 -3.394531 30.046875 -1.78125 C 27.367188 -0.175781 24.367188 0.625 21.046875 0.625 Z M 21.828125 -4.359375 C 23.128906 -4.359375 24.234375 -4.773438 25.140625 -5.609375 C 26.046875 -6.441406 26.742188 -7.660156 27.234375 -9.265625 C 27.734375 -10.878906 27.984375 -12.804688 27.984375 -15.046875 C 27.984375 -19.515625 27.269531 -23.148438 25.84375 -25.953125 C 24.414062 -28.765625 22.503906 -30.171875 20.109375 -30.171875 C 18.191406 -30.171875 16.644531 -29.171875 15.46875 -27.171875 C 14.300781 -25.171875 13.71875 -22.453125 13.71875 -19.015625 C 13.71875 -16.265625 14.066406 -13.769531 14.765625 -11.53125 C 15.472656 -9.300781 16.4375 -7.546875 17.65625 -6.265625 C 18.875 -4.992188 20.265625 -4.359375 21.828125 -4.359375 Z M 21.828125 -4.359375 "/></g></g></g><g fill="#000000" fill-opacity="1"><g transform="translate(269.665084, 92.365646)"><g><path d="M 18.859375 17.78125 C 13.359375 17.78125 9.0625 17.023438 5.96875 15.515625 C 2.875 14.003906 1.328125 11.925781 1.328125 9.28125 C 1.328125 7.5625 2.25 5.960938 4.09375 4.484375 C 5.9375 3.003906 8.441406 1.820312 11.609375 0.9375 L 14.96875 1.25 C 13.71875 2.132812 12.726562 3.144531 12 4.28125 C 11.269531 5.425781 10.90625 6.625 10.90625 7.875 C 10.90625 9.644531 11.660156 11.007812 13.171875 11.96875 C 14.679688 12.925781 16.835938 13.40625 19.640625 13.40625 C 22.503906 13.40625 24.859375 12.796875 26.703125 11.578125 C 28.546875 10.359375 29.46875 8.835938 29.46875 7.015625 C 29.46875 5.710938 29 4.738281 28.0625 4.09375 C 27.125 3.445312 25.539062 3.019531 23.3125 2.8125 L 13.328125 1.953125 L 12.625 1.5625 C 9.976562 1.5625 7.925781 1.066406 6.46875 0.078125 C 5.007812 -0.910156 4.28125 -2.234375 4.28125 -3.890625 C 4.28125 -5.554688 5.097656 -7.101562 6.734375 -8.53125 C 8.378906 -9.96875 10.65625 -11.097656 13.5625 -11.921875 L 14.8125 -10.609375 C 14.1875 -10.242188 13.691406 -9.835938 13.328125 -9.390625 C 12.960938 -8.953125 12.78125 -8.523438 12.78125 -8.109375 C 12.78125 -7.484375 12.972656 -7.015625 13.359375 -6.703125 C 13.753906 -6.390625 14.34375 -6.179688 15.125 -6.078125 L 27.125 -4.90625 C 31.019531 -4.539062 33.90625 -3.523438 35.78125 -1.859375 C 37.65625 -0.203125 38.59375 1.972656 38.59375 4.671875 C 38.59375 7.117188 37.734375 9.328125 36.015625 11.296875 C 34.296875 13.273438 31.957031 14.847656 29 16.015625 C 26.039062 17.191406 22.660156 17.78125 18.859375 17.78125 Z M 19.25 -9.203125 C 16.082031 -9.203125 13.316406 -9.734375 10.953125 -10.796875 C 8.585938 -11.859375 6.753906 -13.335938 5.453125 -15.234375 C 4.160156 -17.140625 3.515625 -19.335938 3.515625 -21.828125 C 3.515625 -24.367188 4.210938 -26.628906 5.609375 -28.609375 C 7.015625 -30.585938 8.925781 -32.144531 11.34375 -33.28125 C 13.757812 -34.425781 16.5 -35 19.5625 -35 C 22.476562 -35 25.101562 -34.414062 27.4375 -33.25 C 29.78125 -32.082031 31.613281 -30.507812 32.9375 -28.53125 C 34.257812 -26.550781 34.921875 -24.316406 34.921875 -21.828125 C 34.921875 -19.378906 34.257812 -17.207031 32.9375 -15.3125 C 31.613281 -13.414062 29.769531 -11.921875 27.40625 -10.828125 C 25.039062 -9.742188 22.320312 -9.203125 19.25 -9.203125 Z M 19.875 -13.71875 C 21.4375 -13.71875 22.6875 -14.429688 23.625 -15.859375 C 24.5625 -17.296875 25.03125 -19.234375 25.03125 -21.671875 C 25.03125 -24.316406 24.519531 -26.445312 23.5 -28.0625 C 22.488281 -29.675781 21.148438 -30.484375 19.484375 -30.484375 C 17.878906 -30.484375 16.59375 -29.726562 15.625 -28.21875 C 14.664062 -26.707031 14.1875 -24.707031 14.1875 -22.21875 C 14.1875 -19.664062 14.707031 -17.609375 15.75 -16.046875 C 16.789062 -14.492188 18.164062 -13.71875 19.875 -13.71875 Z M 39.21875 -27.828125 L 28.6875 -28.84375 L 26.34375 -32.515625 L 39.21875 -34.0625 Z M 39.21875 -27.828125 "/></g></g></g><g fill="#000000" fill-opacity="1"><g transform="translate(310.119376, 92.365646)"><g><path d="M 18.859375 17.78125 C 13.359375 17.78125 9.0625 17.023438 5.96875 15.515625 C 2.875 14.003906 1.328125 11.925781 1.328125 9.28125 C 1.328125 7.5625 2.25 5.960938 4.09375 4.484375 C 5.9375 3.003906 8.441406 1.820312 11.609375 0.9375 L 14.96875 1.25 C 13.71875 2.132812 12.726562 3.144531 12 4.28125 C 11.269531 5.425781 10.90625 6.625 10.90625 7.875 C 10.90625 9.644531 11.660156 11.007812 13.171875 11.96875 C 14.679688 12.925781 16.835938 13.40625 19.640625 13.40625 C 22.503906 13.40625 24.859375 12.796875 26.703125 11.578125 C 28.546875 10.359375 29.46875 8.835938 29.46875 7.015625 C 29.46875 5.710938 29 4.738281 28.0625 4.09375 C 27.125 3.445312 25.539062 3.019531 23.3125 2.8125 L 13.328125 1.953125 L 12.625 1.5625 C 9.976562 1.5625 7.925781 1.066406 6.46875 0.078125 C 5.007812 -0.910156 4.28125 -2.234375 4.28125 -3.890625 C 4.28125 -5.554688 5.097656 -7.101562 6.734375 -8.53125 C 8.378906 -9.96875 10.65625 -11.097656 13.5625 -11.921875 L 14.8125 -10.609375 C 14.1875 -10.242188 13.691406 -9.835938 13.328125 -9.390625 C 12.960938 -8.953125 12.78125 -8.523438 12.78125 -8.109375 C 12.78125 -7.484375 12.972656 -7.015625 13.359375 -6.703125 C 13.753906 -6.390625 14.34375 -6.179688 15.125 -6.078125 L 27.125 -4.90625 C 31.019531 -4.539062 33.90625 -3.523438 35.78125 -1.859375 C 37.65625 -0.203125 38.59375 1.972656 38.59375 4.671875 C 38.59375 7.117188 37.734375 9.328125 36.015625 11.296875 C 34.296875 13.273438 31.957031 14.847656 29 16.015625 C 26.039062 17.191406 22.660156 17.78125 18.859375 17.78125 Z M 19.25 -9.203125 C 16.082031 -9.203125 13.316406 -9.734375 10.953125 -10.796875 C 8.585938 -11.859375 6.753906 -13.335938 5.453125 -15.234375 C 4.160156 -17.140625 3.515625 -19.335938 3.515625 -21.828125 C 3.515625 -24.367188 4.210938 -26.628906 5.609375 -28.609375 C 7.015625 -30.585938 8.925781 -32.144531 11.34375 -33.28125 C 13.757812 -34.425781 16.5 -35 19.5625 -35 C 22.476562 -35 25.101562 -34.414062 27.4375 -33.25 C 29.78125 -32.082031 31.613281 -30.507812 32.9375 -28.53125 C 34.257812 -26.550781 34.921875 -24.316406 34.921875 -21.828125 C 34.921875 -19.378906 34.257812 -17.207031 32.9375 -15.3125 C 31.613281 -13.414062 29.769531 -11.921875 27.40625 -10.828125 C 25.039062 -9.742188 22.320312 -9.203125 19.25 -9.203125 Z M 19.875 -13.71875 C 21.4375 -13.71875 22.6875 -14.429688 23.625 -15.859375 C 24.5625 -17.296875 25.03125 -19.234375 25.03125 -21.671875 C 25.03125 -24.316406 24.519531 -26.445312 23.5 -28.0625 C 22.488281 -29.675781 21.148438 -30.484375 19.484375 -30.484375 C 17.878906 -30.484375 16.59375 -29.726562 15.625 -28.21875 C 14.664062 -26.707031 14.1875 -24.707031 14.1875 -22.21875 C 14.1875 -19.664062 14.707031 -17.609375 15.75 -16.046875 C 16.789062 -14.492188 18.164062 -13.71875 19.875 -13.71875 Z M 39.21875 -27.828125 L 28.6875 -28.84375 L 26.34375 -32.515625 L 39.21875 -34.0625 Z M 39.21875 -27.828125 "/></g></g></g><g fill="#000000" fill-opacity="1"><g transform="translate(350.573668, 92.365646)"><g><path d="M 1.171875 0 L 0.9375 -3.65625 L 6.15625 -4.90625 C 6.207031 -5.113281 6.257812 -5.59375 6.3125 -6.34375 C 6.363281 -7.101562 6.414062 -8.039062 6.46875 -9.15625 C 6.519531 -10.28125 6.546875 -11.460938 6.546875 -12.703125 L 6.625 -18.546875 C 6.625 -20.109375 6.570312 -21.5 6.46875 -22.71875 C 6.363281 -23.945312 6.179688 -25.234375 5.921875 -26.578125 L 0.703125 -27.671875 L 0.703125 -31.1875 L 15.046875 -34.6875 L 17.15625 -33.359375 C 17 -31.703125 16.878906 -30.023438 16.796875 -28.328125 C 16.722656 -26.640625 16.6875 -24.734375 16.6875 -22.609375 L 16.6875 -12.78125 C 16.6875 -11.070312 16.722656 -9.4375 16.796875 -7.875 C 16.878906 -6.3125 17 -5.320312 17.15625 -4.90625 L 22.296875 -3.65625 L 22.0625 0 Z M 11.78125 -41.078125 C 9.644531 -41.078125 7.992188 -41.710938 6.828125 -42.984375 C 5.660156 -44.265625 5.078125 -45.734375 5.078125 -47.390625 C 5.078125 -49.054688 5.660156 -50.523438 6.828125 -51.796875 C 7.992188 -53.078125 9.644531 -53.71875 11.78125 -53.71875 C 13.90625 -53.71875 15.523438 -53.078125 16.640625 -51.796875 C 17.765625 -50.523438 18.328125 -49.054688 18.328125 -47.390625 C 18.328125 -45.734375 17.765625 -44.265625 16.640625 -42.984375 C 15.523438 -41.710938 13.90625 -41.078125 11.78125 -41.078125 Z M 11.78125 -41.078125 "/></g></g></g><g fill="#000000" fill-opacity="1"><g transform="translate(373.801759, 92.365646)"><g><path d="M 1.484375 0 L 1.25 -3.59375 L 6.078125 -4.90625 C 6.128906 -5.113281 6.179688 -5.582031 6.234375 -6.3125 C 6.285156 -7.039062 6.335938 -7.960938 6.390625 -9.078125 C 6.441406 -10.203125 6.46875 -11.410156 6.46875 -12.703125 L 6.546875 -18.625 C 6.546875 -20.238281 6.492188 -21.628906 6.390625 -22.796875 C 6.285156 -23.972656 6.101562 -25.234375 5.84375 -26.578125 L 0.859375 -27.671875 L 0.859375 -31.1875 L 14.578125 -34.6875 L 16.765625 -33.359375 L 16.296875 -28.765625 L 16.53125 -28.6875 C 18.132812 -30.769531 19.910156 -32.316406 21.859375 -33.328125 C 23.816406 -34.335938 25.859375 -34.84375 27.984375 -34.84375 C 30.222656 -34.84375 32.222656 -34.296875 33.984375 -33.203125 C 35.753906 -32.117188 37.144531 -30.523438 38.15625 -28.421875 C 39.175781 -26.316406 39.6875 -23.78125 39.6875 -20.8125 L 39.6875 -12.78125 C 39.6875 -11.019531 39.710938 -9.367188 39.765625 -7.828125 C 39.816406 -6.296875 39.914062 -5.320312 40.0625 -4.90625 L 44.90625 -3.59375 L 44.671875 0 L 25.109375 0 L 24.875 -3.59375 L 29.3125 -4.90625 C 29.414062 -5.425781 29.492188 -6.101562 29.546875 -6.9375 C 29.597656 -7.769531 29.632812 -8.703125 29.65625 -9.734375 C 29.6875 -10.773438 29.703125 -11.765625 29.703125 -12.703125 L 29.703125 -19.25 C 29.703125 -21.226562 29.398438 -22.828125 28.796875 -24.046875 C 28.203125 -25.265625 27.425781 -26.160156 26.46875 -26.734375 C 25.507812 -27.304688 24.429688 -27.59375 23.234375 -27.59375 C 21.929688 -27.59375 20.707031 -27.304688 19.5625 -26.734375 C 18.425781 -26.160156 17.414062 -25.332031 16.53125 -24.25 L 16.53125 -12.78125 C 16.53125 -11.019531 16.566406 -9.367188 16.640625 -7.828125 C 16.722656 -6.296875 16.84375 -5.320312 17 -4.90625 L 21.671875 -3.59375 L 21.4375 0 Z M 1.484375 0 "/></g></g></g><g fill="#000000" fill-opacity="1"><g transform="translate(419.634368, 92.365646)"><g><path d="M 18.859375 17.78125 C 13.359375 17.78125 9.0625 17.023438 5.96875 15.515625 C 2.875 14.003906 1.328125 11.925781 1.328125 9.28125 C 1.328125 7.5625 2.25 5.960938 4.09375 4.484375 C 5.9375 3.003906 8.441406 1.820312 11.609375 0.9375 L 14.96875 1.25 C 13.71875 2.132812 12.726562 3.144531 12 4.28125 C 11.269531 5.425781 10.90625 6.625 10.90625 7.875 C 10.90625 9.644531 11.660156 11.007812 13.171875 11.96875 C 14.679688 12.925781 16.835938 13.40625 19.640625 13.40625 C 22.503906 13.40625 24.859375 12.796875 26.703125 11.578125 C 28.546875 10.359375 29.46875 8.835938 29.46875 7.015625 C 29.46875 5.710938 29 4.738281 28.0625 4.09375 C 27.125 3.445312 25.539062 3.019531 23.3125 2.8125 L 13.328125 1.953125 L 12.625 1.5625 C 9.976562 1.5625 7.925781 1.066406 6.46875 0.078125 C 5.007812 -0.910156 4.28125 -2.234375 4.28125 -3.890625 C 4.28125 -5.554688 5.097656 -7.101562 6.734375 -8.53125 C 8.378906 -9.96875 10.65625 -11.097656 13.5625 -11.921875 L 14.8125 -10.609375 C 14.1875 -10.242188 13.691406 -9.835938 13.328125 -9.390625 C 12.960938 -8.953125 12.78125 -8.523438 12.78125 -8.109375 C 12.78125 -7.484375 12.972656 -7.015625 13.359375 -6.703125 C 13.753906 -6.390625 14.34375 -6.179688 15.125 -6.078125 L 27.125 -4.90625 C 31.019531 -4.539062 33.90625 -3.523438 35.78125 -1.859375 C 37.65625 -0.203125 38.59375 1.972656 38.59375 4.671875 C 38.59375 7.117188 37.734375 9.328125 36.015625 11.296875 C 34.296875 13.273438 31.957031 14.847656 29 16.015625 C 26.039062 17.191406 22.660156 17.78125 18.859375 17.78125 Z M 19.25 -9.203125 C 16.082031 -9.203125 13.316406 -9.734375 10.953125 -10.796875 C 8.585938 -11.859375 6.753906 -13.335938 5.453125 -15.234375 C 4.160156 -17.140625 3.515625 -19.335938 3.515625 -21.828125 C 3.515625 -24.367188 4.210938 -26.628906 5.609375 -28.609375 C 7.015625 -30.585938 8.925781 -32.144531 11.34375 -33.28125 C 13.757812 -34.425781 16.5 -35 19.5625 -35 C 22.476562 -35 25.101562 -34.414062 27.4375 -33.25 C 29.78125 -32.082031 31.613281 -30.507812 32.9375 -28.53125 C 34.257812 -26.550781 34.921875 -24.316406 34.921875 -21.828125 C 34.921875 -19.378906 34.257812 -17.207031 32.9375 -15.3125 C 31.613281 -13.414062 29.769531 -11.921875 27.40625 -10.828125 C 25.039062 -9.742188 22.320312 -9.203125 19.25 -9.203125 Z M 19.875 -13.71875 C 21.4375 -13.71875 22.6875 -14.429688 23.625 -15.859375 C 24.5625 -17.296875 25.03125 -19.234375 25.03125 -21.671875 C 25.03125 -24.316406 24.519531 -26.445312 23.5 -28.0625 C 22.488281 -29.675781 21.148438 -30.484375 19.484375 -30.484375 C 17.878906 -30.484375 16.59375 -29.726562 15.625 -28.21875 C 14.664062 -26.707031 14.1875 -24.707031 14.1875 -22.21875 C 14.1875 -19.664062 14.707031 -17.609375 15.75 -16.046875 C 16.789062 -14.492188 18.164062 -13.71875 19.875 -13.71875 Z M 39.21875 -27.828125 L 28.6875 -28.84375 L 26.34375 -32.515625 L 39.21875 -34.0625 Z M 39.21875 -27.828125 "/></g></g></g></svg>