<svg xmlns="http://www.w3.org/2000/svg" xmlns:xlink="http://www.w3.org/1999/xlink" width="206" zoomAndPan="magnify" viewBox="0 0 154.5 158.249993" height="211" preserveAspectRatio="xMidYMid meet" version="1.0"><defs><g/><clipPath id="32c99d7ab2"><path d="M 8.003906 0 L 145.351562 0 L 145.351562 105.996094 L 8.003906 105.996094 Z M 8.003906 0 " clip-rule="nonzero"/></clipPath></defs><g clip-path="url(#32c99d7ab2)"><path fill="#000000" d="M 20.21875 96.804688 C 12.269531 88.351562 8.003906 78.875 8.003906 63.511719 C 8.003906 36.476562 26.960938 12.246094 54.53125 0.265625 L 61.421875 10.910156 C 35.6875 24.84375 30.65625 42.925781 28.652344 54.328125 C 32.792969 52.179688 38.21875 51.429688 43.535156 51.925781 C 57.457031 53.214844 68.429688 64.65625 68.429688 78.875 C 68.429688 79.761719 68.386719 80.644531 68.296875 81.527344 C 68.210938 82.40625 68.082031 83.28125 67.910156 84.148438 C 67.738281 85.019531 67.523438 85.875 67.265625 86.722656 C 67.007812 87.570312 66.710938 88.402344 66.371094 89.222656 C 66.035156 90.039062 65.65625 90.839844 65.238281 91.621094 C 64.820312 92.402344 64.367188 93.160156 63.875 93.894531 C 63.386719 94.632812 62.859375 95.34375 62.296875 96.027344 C 61.738281 96.710938 61.144531 97.367188 60.519531 97.992188 C 59.894531 98.617188 59.238281 99.210938 58.554688 99.773438 C 57.871094 100.335938 57.160156 100.863281 56.425781 101.355469 C 55.691406 101.847656 54.933594 102.300781 54.152344 102.71875 C 53.371094 103.136719 52.574219 103.515625 51.757812 103.851562 C 50.9375 104.191406 50.105469 104.488281 49.261719 104.746094 C 48.414062 105.003906 47.558594 105.21875 46.691406 105.390625 C 45.824219 105.5625 44.949219 105.695312 44.070312 105.78125 C 43.1875 105.867188 42.304688 105.910156 41.421875 105.910156 C 33.140625 105.910156 25.226562 102.125 20.21875 96.804688 Z M 97.378906 96.804688 C 89.433594 88.351562 85.164062 78.875 85.164062 63.511719 C 85.164062 36.476562 104.125 12.246094 131.695312 0.265625 L 138.585938 10.910156 C 112.851562 24.84375 107.820312 42.925781 105.8125 54.328125 C 109.957031 52.179688 115.382812 51.429688 120.699219 51.925781 C 134.617188 53.214844 145.589844 64.65625 145.589844 78.875 C 145.589844 79.761719 145.546875 80.644531 145.460938 81.527344 C 145.375 82.40625 145.246094 83.28125 145.070312 84.148438 C 144.898438 85.019531 144.683594 85.875 144.425781 86.722656 C 144.171875 87.570312 143.875 88.402344 143.535156 89.222656 C 143.195312 90.039062 142.820312 90.839844 142.402344 91.621094 C 141.984375 92.402344 141.53125 93.160156 141.039062 93.894531 C 140.546875 94.632812 140.019531 95.34375 139.460938 96.027344 C 138.898438 96.710938 138.304688 97.367188 137.679688 97.992188 C 137.054688 98.617188 136.402344 99.210938 135.714844 99.773438 C 135.03125 100.335938 134.324219 100.863281 133.585938 101.355469 C 132.851562 101.847656 132.09375 102.300781 131.316406 102.71875 C 130.535156 103.136719 129.734375 103.515625 128.917969 103.851562 C 128.101562 104.191406 127.269531 104.488281 126.421875 104.746094 C 125.578125 105.003906 124.71875 105.21875 123.851562 105.390625 C 122.984375 105.5625 122.109375 105.695312 121.230469 105.78125 C 120.351562 105.867188 119.46875 105.910156 118.582031 105.910156 C 110.304688 105.910156 102.386719 102.125 97.378906 96.804688 Z M 97.378906 96.804688 " fill-opacity="1" fill-rule="nonzero"/></g><g fill="#000000" fill-opacity="1"><g transform="translate(9.028663, 139.131819)"><g><path d="M 3.421875 -2.3125 C 3.492188 -2.46875 3.550781 -3.050781 3.59375 -4.0625 C 3.644531 -5.082031 3.671875 -6.296875 3.671875 -7.703125 L 3.671875 -12.8125 C 3.671875 -14.28125 3.644531 -15.519531 3.59375 -16.53125 C 3.550781 -17.539062 3.492188 -18.109375 3.421875 -18.234375 L 1.1875 -18.828125 L 1.296875 -20.53125 L 11.234375 -20.53125 C 13.703125 -20.53125 15.535156 -20.125 16.734375 -19.3125 C 17.941406 -18.5 18.546875 -17.265625 18.546875 -15.609375 C 18.546875 -14.328125 17.988281 -13.253906 16.875 -12.390625 C 15.769531 -11.523438 14.304688 -11.035156 12.484375 -10.921875 L 12.703125 -11.203125 C 14.921875 -11.109375 16.625 -10.601562 17.8125 -9.6875 C 19 -8.78125 19.59375 -7.554688 19.59375 -6.015625 C 19.59375 -4.128906 18.789062 -2.65625 17.1875 -1.59375 C 15.59375 -0.53125 13.363281 0 10.5 0 L 1.296875 0 L 1.1875 -1.75 Z M 8.359375 -6.1875 C 8.359375 -5.257812 8.367188 -4.453125 8.390625 -3.765625 C 8.421875 -3.078125 8.445312 -2.601562 8.46875 -2.34375 C 8.695312 -2.25 9.019531 -2.171875 9.4375 -2.109375 C 9.863281 -2.054688 10.25 -2.03125 10.59375 -2.03125 C 11.851562 -2.03125 12.828125 -2.335938 13.515625 -2.953125 C 14.210938 -3.578125 14.5625 -4.4375 14.5625 -5.53125 C 14.5625 -6.851562 14.1875 -7.820312 13.4375 -8.4375 C 12.6875 -9.0625 11.507812 -9.375 9.90625 -9.375 C 9.507812 -9.375 9.15625 -9.375 8.84375 -9.375 C 8.539062 -9.375 8.226562 -9.351562 7.90625 -9.3125 L 7.90625 -11.609375 C 8.257812 -11.585938 8.566406 -11.570312 8.828125 -11.5625 C 9.097656 -11.550781 9.398438 -11.546875 9.734375 -11.546875 C 10.984375 -11.546875 11.921875 -11.851562 12.546875 -12.46875 C 13.179688 -13.09375 13.5 -13.988281 13.5 -15.15625 C 13.5 -16.195312 13.191406 -17.023438 12.578125 -17.640625 C 11.960938 -18.265625 11.015625 -18.578125 9.734375 -18.578125 L 8.4375 -18.578125 C 8.40625 -18.367188 8.382812 -17.875 8.375 -17.09375 C 8.363281 -16.3125 8.359375 -15.394531 8.359375 -14.34375 Z M 8.359375 -6.1875 "/></g></g></g><g fill="#000000" fill-opacity="1"><g transform="translate(30.121016, 139.131819)"><g><path d="M 0.5625 0 L 0.453125 -1.640625 L 2.734375 -2.203125 C 2.753906 -2.460938 2.78125 -2.910156 2.8125 -3.546875 C 2.851562 -4.191406 2.882812 -4.929688 2.90625 -5.765625 C 2.925781 -6.609375 2.9375 -7.425781 2.9375 -8.21875 L 2.9375 -12.625 C 2.9375 -13.445312 2.929688 -14.253906 2.921875 -15.046875 C 2.910156 -15.835938 2.898438 -16.597656 2.890625 -17.328125 C 2.878906 -18.066406 2.859375 -18.734375 2.828125 -19.328125 C 2.804688 -19.921875 2.773438 -20.414062 2.734375 -20.8125 L 0.140625 -21.171875 L 0.0625 -22.671875 L 6.75 -24.390625 L 7.734375 -23.796875 C 7.679688 -22.816406 7.644531 -21.863281 7.625 -20.9375 C 7.601562 -20.019531 7.585938 -18.976562 7.578125 -17.8125 C 7.566406 -16.644531 7.5625 -15.222656 7.5625 -13.546875 L 7.515625 -8.390625 C 7.515625 -6.765625 7.523438 -5.382812 7.546875 -4.25 C 7.578125 -3.113281 7.613281 -2.429688 7.65625 -2.203125 L 9.9375 -1.640625 L 9.859375 0 Z M 0.5625 0 "/></g></g></g><g fill="#000000" fill-opacity="1"><g transform="translate(40.544765, 139.131819)"><g><path d="M 9.453125 0.28125 C 7.816406 0.28125 6.378906 -0.0507812 5.140625 -0.71875 C 3.898438 -1.382812 2.929688 -2.304688 2.234375 -3.484375 C 1.535156 -4.660156 1.1875 -6.003906 1.1875 -7.515625 C 1.1875 -9.242188 1.582031 -10.710938 2.375 -11.921875 C 3.164062 -13.140625 4.203125 -14.0625 5.484375 -14.6875 C 6.773438 -15.320312 8.144531 -15.640625 9.59375 -15.640625 C 11.15625 -15.640625 12.523438 -15.3125 13.703125 -14.65625 C 14.878906 -14.007812 15.796875 -13.09375 16.453125 -11.90625 C 17.117188 -10.726562 17.453125 -9.382812 17.453125 -7.875 C 17.453125 -6.332031 17.09375 -4.945312 16.375 -3.71875 C 15.65625 -2.5 14.691406 -1.523438 13.484375 -0.796875 C 12.285156 -0.078125 10.941406 0.28125 9.453125 0.28125 Z M 9.796875 -1.953125 C 10.378906 -1.953125 10.875 -2.140625 11.28125 -2.515625 C 11.6875 -2.890625 12 -3.4375 12.21875 -4.15625 C 12.445312 -4.882812 12.5625 -5.75 12.5625 -6.75 C 12.5625 -8.757812 12.238281 -10.394531 11.59375 -11.65625 C 10.957031 -12.914062 10.101562 -13.546875 9.03125 -13.546875 C 8.164062 -13.546875 7.46875 -13.09375 6.9375 -12.1875 C 6.414062 -11.289062 6.15625 -10.070312 6.15625 -8.53125 C 6.15625 -7.300781 6.3125 -6.179688 6.625 -5.171875 C 6.945312 -4.171875 7.378906 -3.382812 7.921875 -2.8125 C 8.472656 -2.238281 9.097656 -1.953125 9.796875 -1.953125 Z M 9.796875 -1.953125 "/></g></g></g><g fill="#000000" fill-opacity="1"><g transform="translate(59.188586, 139.131819)"><g><path d="M 8.46875 7.984375 C 6 7.984375 4.066406 7.644531 2.671875 6.96875 C 1.285156 6.289062 0.59375 5.351562 0.59375 4.15625 C 0.59375 3.394531 1.003906 2.679688 1.828125 2.015625 C 2.660156 1.347656 3.789062 0.816406 5.21875 0.421875 L 6.71875 0.5625 C 6.15625 0.957031 5.707031 1.410156 5.375 1.921875 C 5.050781 2.429688 4.890625 2.96875 4.890625 3.53125 C 4.890625 4.320312 5.226562 4.929688 5.90625 5.359375 C 6.582031 5.796875 7.550781 6.015625 8.8125 6.015625 C 10.09375 6.015625 11.144531 5.738281 11.96875 5.1875 C 12.800781 4.644531 13.21875 3.96875 13.21875 3.15625 C 13.21875 2.570312 13.007812 2.132812 12.59375 1.84375 C 12.175781 1.550781 11.46875 1.359375 10.46875 1.265625 L 5.984375 0.875 L 5.671875 0.703125 C 4.484375 0.703125 3.5625 0.476562 2.90625 0.03125 C 2.25 -0.40625 1.921875 -1 1.921875 -1.75 C 1.921875 -2.5 2.285156 -3.191406 3.015625 -3.828125 C 3.753906 -4.472656 4.78125 -4.984375 6.09375 -5.359375 L 6.640625 -4.765625 C 6.367188 -4.597656 6.148438 -4.414062 5.984375 -4.21875 C 5.816406 -4.019531 5.734375 -3.828125 5.734375 -3.640625 C 5.734375 -3.359375 5.820312 -3.144531 6 -3 C 6.175781 -2.863281 6.4375 -2.773438 6.78125 -2.734375 L 12.171875 -2.203125 C 13.921875 -2.035156 15.210938 -1.578125 16.046875 -0.828125 C 16.890625 -0.0859375 17.3125 0.882812 17.3125 2.09375 C 17.3125 3.195312 16.925781 4.191406 16.15625 5.078125 C 15.394531 5.960938 14.347656 6.664062 13.015625 7.1875 C 11.679688 7.71875 10.164062 7.984375 8.46875 7.984375 Z M 8.640625 -4.125 C 7.222656 -4.125 5.984375 -4.363281 4.921875 -4.84375 C 3.859375 -5.320312 3.035156 -5.988281 2.453125 -6.84375 C 1.867188 -7.695312 1.578125 -8.679688 1.578125 -9.796875 C 1.578125 -10.941406 1.890625 -11.957031 2.515625 -12.84375 C 3.148438 -13.726562 4.007812 -14.425781 5.09375 -14.9375 C 6.175781 -15.445312 7.40625 -15.703125 8.78125 -15.703125 C 10.082031 -15.703125 11.257812 -15.441406 12.3125 -14.921875 C 13.363281 -14.398438 14.1875 -13.691406 14.78125 -12.796875 C 15.375 -11.910156 15.671875 -10.910156 15.671875 -9.796875 C 15.671875 -8.703125 15.375 -7.726562 14.78125 -6.875 C 14.1875 -6.019531 13.359375 -5.347656 12.296875 -4.859375 C 11.234375 -4.367188 10.015625 -4.125 8.640625 -4.125 Z M 8.921875 -6.15625 C 9.617188 -6.15625 10.175781 -6.472656 10.59375 -7.109375 C 11.019531 -7.753906 11.234375 -8.628906 11.234375 -9.734375 C 11.234375 -10.921875 11.003906 -11.875 10.546875 -12.59375 C 10.085938 -13.320312 9.488281 -13.6875 8.75 -13.6875 C 8.019531 -13.6875 7.441406 -13.347656 7.015625 -12.671875 C 6.585938 -11.992188 6.375 -11.09375 6.375 -9.96875 C 6.375 -8.820312 6.601562 -7.898438 7.0625 -7.203125 C 7.53125 -6.503906 8.148438 -6.15625 8.921875 -6.15625 Z M 17.59375 -12.484375 L 12.875 -12.953125 L 11.828125 -14.59375 L 17.59375 -15.296875 Z M 17.59375 -12.484375 "/></g></g></g><g fill="#000000" fill-opacity="1"><g transform="translate(77.342701, 139.131819)"><g><path d="M 8.46875 7.984375 C 6 7.984375 4.066406 7.644531 2.671875 6.96875 C 1.285156 6.289062 0.59375 5.351562 0.59375 4.15625 C 0.59375 3.394531 1.003906 2.679688 1.828125 2.015625 C 2.660156 1.347656 3.789062 0.816406 5.21875 0.421875 L 6.71875 0.5625 C 6.15625 0.957031 5.707031 1.410156 5.375 1.921875 C 5.050781 2.429688 4.890625 2.96875 4.890625 3.53125 C 4.890625 4.320312 5.226562 4.929688 5.90625 5.359375 C 6.582031 5.796875 7.550781 6.015625 8.8125 6.015625 C 10.09375 6.015625 11.144531 5.738281 11.96875 5.1875 C 12.800781 4.644531 13.21875 3.96875 13.21875 3.15625 C 13.21875 2.570312 13.007812 2.132812 12.59375 1.84375 C 12.175781 1.550781 11.46875 1.359375 10.46875 1.265625 L 5.984375 0.875 L 5.671875 0.703125 C 4.484375 0.703125 3.5625 0.476562 2.90625 0.03125 C 2.25 -0.40625 1.921875 -1 1.921875 -1.75 C 1.921875 -2.5 2.285156 -3.191406 3.015625 -3.828125 C 3.753906 -4.472656 4.78125 -4.984375 6.09375 -5.359375 L 6.640625 -4.765625 C 6.367188 -4.597656 6.148438 -4.414062 5.984375 -4.21875 C 5.816406 -4.019531 5.734375 -3.828125 5.734375 -3.640625 C 5.734375 -3.359375 5.820312 -3.144531 6 -3 C 6.175781 -2.863281 6.4375 -2.773438 6.78125 -2.734375 L 12.171875 -2.203125 C 13.921875 -2.035156 15.210938 -1.578125 16.046875 -0.828125 C 16.890625 -0.0859375 17.3125 0.882812 17.3125 2.09375 C 17.3125 3.195312 16.925781 4.191406 16.15625 5.078125 C 15.394531 5.960938 14.347656 6.664062 13.015625 7.1875 C 11.679688 7.71875 10.164062 7.984375 8.46875 7.984375 Z M 8.640625 -4.125 C 7.222656 -4.125 5.984375 -4.363281 4.921875 -4.84375 C 3.859375 -5.320312 3.035156 -5.988281 2.453125 -6.84375 C 1.867188 -7.695312 1.578125 -8.679688 1.578125 -9.796875 C 1.578125 -10.941406 1.890625 -11.957031 2.515625 -12.84375 C 3.148438 -13.726562 4.007812 -14.425781 5.09375 -14.9375 C 6.175781 -15.445312 7.40625 -15.703125 8.78125 -15.703125 C 10.082031 -15.703125 11.257812 -15.441406 12.3125 -14.921875 C 13.363281 -14.398438 14.1875 -13.691406 14.78125 -12.796875 C 15.375 -11.910156 15.671875 -10.910156 15.671875 -9.796875 C 15.671875 -8.703125 15.375 -7.726562 14.78125 -6.875 C 14.1875 -6.019531 13.359375 -5.347656 12.296875 -4.859375 C 11.234375 -4.367188 10.015625 -4.125 8.640625 -4.125 Z M 8.921875 -6.15625 C 9.617188 -6.15625 10.175781 -6.472656 10.59375 -7.109375 C 11.019531 -7.753906 11.234375 -8.628906 11.234375 -9.734375 C 11.234375 -10.921875 11.003906 -11.875 10.546875 -12.59375 C 10.085938 -13.320312 9.488281 -13.6875 8.75 -13.6875 C 8.019531 -13.6875 7.441406 -13.347656 7.015625 -12.671875 C 6.585938 -11.992188 6.375 -11.09375 6.375 -9.96875 C 6.375 -8.820312 6.601562 -7.898438 7.0625 -7.203125 C 7.53125 -6.503906 8.148438 -6.15625 8.921875 -6.15625 Z M 17.59375 -12.484375 L 12.875 -12.953125 L 11.828125 -14.59375 L 17.59375 -15.296875 Z M 17.59375 -12.484375 "/></g></g></g><g fill="#000000" fill-opacity="1"><g transform="translate(95.496815, 139.131819)"><g><path d="M 0.53125 0 L 0.421875 -1.640625 L 2.765625 -2.203125 C 2.785156 -2.296875 2.804688 -2.507812 2.828125 -2.84375 C 2.859375 -3.1875 2.882812 -3.609375 2.90625 -4.109375 C 2.925781 -4.609375 2.9375 -5.140625 2.9375 -5.703125 L 2.96875 -8.328125 C 2.96875 -9.023438 2.941406 -9.644531 2.890625 -10.1875 C 2.847656 -10.738281 2.769531 -11.320312 2.65625 -11.9375 L 0.3125 -12.421875 L 0.3125 -14 L 6.75 -15.5625 L 7.703125 -14.96875 C 7.628906 -14.226562 7.570312 -13.476562 7.53125 -12.71875 C 7.5 -11.957031 7.484375 -11.097656 7.484375 -10.140625 L 7.484375 -5.734375 C 7.484375 -4.960938 7.5 -4.226562 7.53125 -3.53125 C 7.570312 -2.832031 7.628906 -2.390625 7.703125 -2.203125 L 10 -1.640625 L 9.90625 0 Z M 5.28125 -18.4375 C 4.320312 -18.4375 3.578125 -18.722656 3.046875 -19.296875 C 2.523438 -19.867188 2.265625 -20.523438 2.265625 -21.265625 C 2.265625 -22.015625 2.523438 -22.675781 3.046875 -23.25 C 3.578125 -23.820312 4.320312 -24.109375 5.28125 -24.109375 C 6.238281 -24.109375 6.96875 -23.820312 7.46875 -23.25 C 7.96875 -22.675781 8.21875 -22.015625 8.21875 -21.265625 C 8.21875 -20.523438 7.96875 -19.867188 7.46875 -19.296875 C 6.96875 -18.722656 6.238281 -18.4375 5.28125 -18.4375 Z M 5.28125 -18.4375 "/></g></g></g><g fill="#000000" fill-opacity="1"><g transform="translate(105.920565, 139.131819)"><g><path d="M 0.671875 0 L 0.5625 -1.609375 L 2.734375 -2.203125 C 2.753906 -2.296875 2.773438 -2.503906 2.796875 -2.828125 C 2.816406 -3.160156 2.835938 -3.578125 2.859375 -4.078125 C 2.890625 -4.578125 2.90625 -5.117188 2.90625 -5.703125 L 2.9375 -8.359375 C 2.9375 -9.085938 2.910156 -9.710938 2.859375 -10.234375 C 2.816406 -10.753906 2.738281 -11.320312 2.625 -11.9375 L 0.390625 -12.421875 L 0.390625 -14 L 6.546875 -15.5625 L 7.515625 -14.96875 L 7.3125 -12.90625 L 7.421875 -12.875 C 8.140625 -13.8125 8.9375 -14.503906 9.8125 -14.953125 C 10.6875 -15.410156 11.601562 -15.640625 12.5625 -15.640625 C 13.5625 -15.640625 14.457031 -15.394531 15.25 -14.90625 C 16.039062 -14.414062 16.664062 -13.695312 17.125 -12.75 C 17.582031 -11.8125 17.8125 -10.675781 17.8125 -9.34375 L 17.8125 -5.734375 C 17.8125 -4.941406 17.820312 -4.203125 17.84375 -3.515625 C 17.863281 -2.828125 17.910156 -2.390625 17.984375 -2.203125 L 20.15625 -1.609375 L 20.046875 0 L 11.265625 0 L 11.15625 -1.609375 L 13.15625 -2.203125 C 13.195312 -2.429688 13.226562 -2.734375 13.25 -3.109375 C 13.28125 -3.484375 13.300781 -3.90625 13.3125 -4.375 C 13.320312 -4.84375 13.328125 -5.285156 13.328125 -5.703125 L 13.328125 -8.640625 C 13.328125 -9.523438 13.191406 -10.238281 12.921875 -10.78125 C 12.660156 -11.332031 12.3125 -11.738281 11.875 -12 C 11.445312 -12.257812 10.960938 -12.390625 10.421875 -12.390625 C 9.835938 -12.390625 9.289062 -12.257812 8.78125 -12 C 8.269531 -11.738281 7.816406 -11.363281 7.421875 -10.875 L 7.421875 -5.734375 C 7.421875 -4.941406 7.4375 -4.203125 7.46875 -3.515625 C 7.5 -2.828125 7.550781 -2.390625 7.625 -2.203125 L 9.734375 -1.609375 L 9.625 0 Z M 0.671875 0 "/></g></g></g><g fill="#000000" fill-opacity="1"><g transform="translate(126.488232, 139.131819)"><g><path d="M 8.46875 7.984375 C 6 7.984375 4.066406 7.644531 2.671875 6.96875 C 1.285156 6.289062 0.59375 5.351562 0.59375 4.15625 C 0.59375 3.394531 1.003906 2.679688 1.828125 2.015625 C 2.660156 1.347656 3.789062 0.816406 5.21875 0.421875 L 6.71875 0.5625 C 6.15625 0.957031 5.707031 1.410156 5.375 1.921875 C 5.050781 2.429688 4.890625 2.96875 4.890625 3.53125 C 4.890625 4.320312 5.226562 4.929688 5.90625 5.359375 C 6.582031 5.796875 7.550781 6.015625 8.8125 6.015625 C 10.09375 6.015625 11.144531 5.738281 11.96875 5.1875 C 12.800781 4.644531 13.21875 3.96875 13.21875 3.15625 C 13.21875 2.570312 13.007812 2.132812 12.59375 1.84375 C 12.175781 1.550781 11.46875 1.359375 10.46875 1.265625 L 5.984375 0.875 L 5.671875 0.703125 C 4.484375 0.703125 3.5625 0.476562 2.90625 0.03125 C 2.25 -0.40625 1.921875 -1 1.921875 -1.75 C 1.921875 -2.5 2.285156 -3.191406 3.015625 -3.828125 C 3.753906 -4.472656 4.78125 -4.984375 6.09375 -5.359375 L 6.640625 -4.765625 C 6.367188 -4.597656 6.148438 -4.414062 5.984375 -4.21875 C 5.816406 -4.019531 5.734375 -3.828125 5.734375 -3.640625 C 5.734375 -3.359375 5.820312 -3.144531 6 -3 C 6.175781 -2.863281 6.4375 -2.773438 6.78125 -2.734375 L 12.171875 -2.203125 C 13.921875 -2.035156 15.210938 -1.578125 16.046875 -0.828125 C 16.890625 -0.0859375 17.3125 0.882812 17.3125 2.09375 C 17.3125 3.195312 16.925781 4.191406 16.15625 5.078125 C 15.394531 5.960938 14.347656 6.664062 13.015625 7.1875 C 11.679688 7.71875 10.164062 7.984375 8.46875 7.984375 Z M 8.640625 -4.125 C 7.222656 -4.125 5.984375 -4.363281 4.921875 -4.84375 C 3.859375 -5.320312 3.035156 -5.988281 2.453125 -6.84375 C 1.867188 -7.695312 1.578125 -8.679688 1.578125 -9.796875 C 1.578125 -10.941406 1.890625 -11.957031 2.515625 -12.84375 C 3.148438 -13.726562 4.007812 -14.425781 5.09375 -14.9375 C 6.175781 -15.445312 7.40625 -15.703125 8.78125 -15.703125 C 10.082031 -15.703125 11.257812 -15.441406 12.3125 -14.921875 C 13.363281 -14.398438 14.1875 -13.691406 14.78125 -12.796875 C 15.375 -11.910156 15.671875 -10.910156 15.671875 -9.796875 C 15.671875 -8.703125 15.375 -7.726562 14.78125 -6.875 C 14.1875 -6.019531 13.359375 -5.347656 12.296875 -4.859375 C 11.234375 -4.367188 10.015625 -4.125 8.640625 -4.125 Z M 8.921875 -6.15625 C 9.617188 -6.15625 10.175781 -6.472656 10.59375 -7.109375 C 11.019531 -7.753906 11.234375 -8.628906 11.234375 -9.734375 C 11.234375 -10.921875 11.003906 -11.875 10.546875 -12.59375 C 10.085938 -13.320312 9.488281 -13.6875 8.75 -13.6875 C 8.019531 -13.6875 7.441406 -13.347656 7.015625 -12.671875 C 6.585938 -11.992188 6.375 -11.09375 6.375 -9.96875 C 6.375 -8.820312 6.601562 -7.898438 7.0625 -7.203125 C 7.53125 -6.503906 8.148438 -6.15625 8.921875 -6.15625 Z M 17.59375 -12.484375 L 12.875 -12.953125 L 11.828125 -14.59375 L 17.59375 -15.296875 Z M 17.59375 -12.484375 "/></g></g></g></svg>