<svg xmlns="http://www.w3.org/2000/svg" xmlns:xlink="http://www.w3.org/1999/xlink" width="1920" zoomAndPan="magnify" viewBox="0 0 1440 809.999993" height="1080" preserveAspectRatio="xMidYMid meet" version="1.0"><defs><g/><clipPath id="41b104bb3e"><path d="M 547.335938 218 L 891.613281 218 L 891.613281 483.398438 L 547.335938 483.398438 Z M 547.335938 218 " clip-rule="nonzero"/></clipPath></defs><g clip-path="url(#41b104bb3e)"><path fill="#000000" d="M 577.953125 460.355469 C 558.03125 439.171875 547.335938 415.414062 547.335938 376.902344 C 547.335938 309.136719 594.855469 248.398438 663.964844 218.367188 L 681.234375 245.046875 C 616.730469 279.976562 604.121094 325.304688 599.09375 353.882812 C 609.480469 348.5 623.074219 346.621094 636.402344 347.859375 C 671.292969 351.09375 698.796875 379.769531 698.796875 415.414062 C 698.796875 416.523438 698.769531 417.632812 698.714844 418.738281 C 698.664062 419.847656 698.582031 420.953125 698.472656 422.058594 C 698.363281 423.160156 698.226562 424.261719 698.066406 425.359375 C 697.902344 426.457031 697.714844 427.546875 697.496094 428.636719 C 697.28125 429.722656 697.039062 430.804688 696.769531 431.878906 C 696.5 432.957031 696.203125 434.023438 695.882812 435.085938 C 695.5625 436.148438 695.214844 437.199219 694.839844 438.246094 C 694.46875 439.289062 694.070312 440.324219 693.644531 441.347656 C 693.222656 442.371094 692.773438 443.386719 692.296875 444.390625 C 691.824219 445.390625 691.328125 446.382812 690.804688 447.359375 C 690.28125 448.339844 689.738281 449.300781 689.167969 450.253906 C 688.597656 451.207031 688.003906 452.140625 687.390625 453.0625 C 686.773438 453.984375 686.136719 454.894531 685.476562 455.785156 C 684.816406 456.675781 684.136719 457.546875 683.433594 458.40625 C 682.730469 459.261719 682.003906 460.101562 681.261719 460.925781 C 680.519531 461.746094 679.753906 462.550781 678.972656 463.332031 C 678.1875 464.117188 677.386719 464.882812 676.5625 465.625 C 675.742188 466.371094 674.90625 467.097656 674.046875 467.800781 C 673.191406 468.503906 672.320312 469.183594 671.429688 469.847656 C 670.539062 470.507812 669.632812 471.144531 668.710938 471.761719 C 667.792969 472.378906 666.855469 472.96875 665.90625 473.539062 C 664.953125 474.109375 663.992188 474.65625 663.015625 475.179688 C 662.035156 475.703125 661.046875 476.203125 660.046875 476.675781 C 659.042969 477.148438 658.03125 477.597656 657.007812 478.023438 C 655.984375 478.449219 654.953125 478.847656 653.910156 479.21875 C 652.867188 479.59375 651.8125 479.941406 650.753906 480.265625 C 649.695312 480.585938 648.625 480.882812 647.550781 481.152344 C 646.476562 481.421875 645.394531 481.664062 644.308594 481.878906 C 643.222656 482.097656 642.132812 482.285156 641.035156 482.449219 C 639.941406 482.609375 638.839844 482.746094 637.738281 482.855469 C 636.636719 482.964844 635.53125 483.046875 634.425781 483.101562 C 633.316406 483.15625 632.210938 483.183594 631.101562 483.183594 C 610.347656 483.183594 590.503906 473.695312 577.953125 460.355469 Z M 771.367188 460.355469 C 751.445312 439.171875 740.75 415.414062 740.75 376.902344 C 740.75 309.136719 788.273438 248.398438 857.378906 218.367188 L 874.652344 245.046875 C 810.148438 279.976562 797.539062 325.304688 792.507812 353.882812 C 802.894531 348.5 816.492188 346.621094 829.820312 347.859375 C 864.710938 351.09375 892.214844 379.769531 892.214844 415.414062 C 892.214844 416.523438 892.1875 417.632812 892.132812 418.738281 C 892.078125 419.847656 891.996094 420.953125 891.886719 422.058594 C 891.78125 423.160156 891.644531 424.261719 891.480469 425.359375 C 891.320312 426.457031 891.128906 427.546875 890.914062 428.636719 C 890.699219 429.722656 890.453125 430.804688 890.1875 431.878906 C 889.917969 432.957031 889.621094 434.023438 889.300781 435.085938 C 888.976562 436.148438 888.628906 437.199219 888.257812 438.246094 C 887.882812 439.289062 887.484375 440.324219 887.0625 441.347656 C 886.636719 442.371094 886.1875 443.386719 885.714844 444.390625 C 885.242188 445.390625 884.742188 446.382812 884.222656 447.359375 C 883.699219 448.339844 883.152344 449.300781 882.582031 450.253906 C 882.015625 451.207031 881.421875 452.140625 880.804688 453.0625 C 880.191406 453.984375 879.550781 454.894531 878.890625 455.785156 C 878.234375 456.675781 877.550781 457.546875 876.847656 458.40625 C 876.144531 459.261719 875.421875 460.101562 874.679688 460.925781 C 873.933594 461.746094 873.171875 462.550781 872.386719 463.332031 C 871.601562 464.117188 870.800781 464.882812 869.980469 465.625 C 869.160156 466.371094 868.320312 467.097656 867.464844 467.800781 C 866.609375 468.503906 865.734375 469.183594 864.84375 469.847656 C 863.957031 470.507812 863.050781 471.144531 862.128906 471.761719 C 861.207031 472.378906 860.273438 472.96875 859.320312 473.539062 C 858.371094 474.109375 857.40625 474.65625 856.429688 475.179688 C 855.453125 475.703125 854.464844 476.203125 853.460938 476.675781 C 852.460938 477.148438 851.449219 477.597656 850.425781 478.023438 C 849.402344 478.449219 848.367188 478.847656 847.324219 479.21875 C 846.28125 479.59375 845.230469 479.941406 844.167969 480.265625 C 843.109375 480.585938 842.042969 480.882812 840.96875 481.152344 C 839.894531 481.421875 838.8125 481.664062 837.726562 481.878906 C 836.640625 482.097656 835.546875 482.285156 834.453125 482.449219 C 833.355469 482.609375 832.257812 482.746094 831.152344 482.855469 C 830.050781 482.964844 828.945312 483.046875 827.839844 483.101562 C 826.734375 483.15625 825.625 483.183594 824.519531 483.183594 C 803.765625 483.183594 783.921875 473.695312 771.367188 460.355469 Z M 771.367188 460.355469 " fill-opacity="1" fill-rule="nonzero"/></g><g fill="#000000" fill-opacity="1"><g transform="translate(572.652298, 566.453929)"><g><path d="M 8.59375 -5.78125 C 8.769531 -6.195312 8.914062 -7.675781 9.03125 -10.21875 C 9.144531 -12.757812 9.203125 -15.785156 9.203125 -19.296875 L 9.203125 -32.09375 C 9.203125 -35.78125 9.144531 -38.894531 9.03125 -41.4375 C 8.914062 -43.976562 8.769531 -45.394531 8.59375 -45.6875 L 2.984375 -47.171875 L 3.25 -51.46875 L 28.15625 -51.46875 C 34.34375 -51.46875 38.941406 -50.445312 41.953125 -48.40625 C 44.972656 -46.363281 46.484375 -43.265625 46.484375 -39.109375 C 46.484375 -35.890625 45.09375 -33.195312 42.3125 -31.03125 C 39.53125 -28.875 35.863281 -27.648438 31.3125 -27.359375 L 31.828125 -28.0625 C 37.378906 -27.820312 41.644531 -26.5625 44.625 -24.28125 C 47.613281 -22.007812 49.109375 -18.941406 49.109375 -15.078125 C 49.109375 -10.347656 47.101562 -6.648438 43.09375 -3.984375 C 39.09375 -1.328125 33.5 0 26.3125 0 L 3.25 0 L 2.984375 -4.390625 Z M 20.953125 -15.515625 C 20.953125 -13.179688 20.984375 -11.148438 21.046875 -9.421875 C 21.109375 -7.703125 21.164062 -6.519531 21.21875 -5.875 C 21.800781 -5.644531 22.617188 -5.457031 23.671875 -5.3125 C 24.722656 -5.164062 25.691406 -5.09375 26.578125 -5.09375 C 29.734375 -5.09375 32.171875 -5.863281 33.890625 -7.40625 C 35.617188 -8.957031 36.484375 -11.109375 36.484375 -13.859375 C 36.484375 -17.191406 35.546875 -19.628906 33.671875 -21.171875 C 31.804688 -22.722656 28.851562 -23.5 24.8125 -23.5 C 23.820312 -23.5 22.945312 -23.5 22.1875 -23.5 C 21.425781 -23.5 20.632812 -23.441406 19.8125 -23.328125 L 19.8125 -29.109375 C 20.695312 -29.054688 21.472656 -29.015625 22.140625 -28.984375 C 22.816406 -28.953125 23.5625 -28.9375 24.375 -28.9375 C 27.53125 -28.9375 29.894531 -29.710938 31.46875 -31.265625 C 33.050781 -32.816406 33.84375 -35.050781 33.84375 -37.96875 C 33.84375 -40.601562 33.066406 -42.691406 31.515625 -44.234375 C 29.972656 -45.785156 27.59375 -46.5625 24.375 -46.5625 L 21.140625 -46.5625 C 21.078125 -46.039062 21.03125 -44.800781 21 -42.84375 C 20.96875 -40.882812 20.953125 -38.585938 20.953125 -35.953125 Z M 20.953125 -15.515625 "/></g></g></g><g fill="#000000" fill-opacity="1"><g transform="translate(625.522654, 566.453929)"><g><path d="M 1.40625 0 L 1.140625 -4.125 L 6.84375 -5.53125 C 6.894531 -6.164062 6.960938 -7.285156 7.046875 -8.890625 C 7.140625 -10.503906 7.210938 -12.363281 7.265625 -14.46875 C 7.328125 -16.570312 7.359375 -18.617188 7.359375 -20.609375 L 7.359375 -31.65625 C 7.359375 -33.695312 7.34375 -35.710938 7.3125 -37.703125 C 7.289062 -39.691406 7.265625 -41.609375 7.234375 -43.453125 C 7.203125 -45.296875 7.15625 -46.960938 7.09375 -48.453125 C 7.039062 -49.941406 6.957031 -51.179688 6.84375 -52.171875 L 0.34375 -53.046875 L 0.171875 -56.828125 L 16.921875 -61.125 L 19.375 -59.625 C 19.257812 -57.175781 19.171875 -54.796875 19.109375 -52.484375 C 19.054688 -50.171875 19.015625 -47.550781 18.984375 -44.625 C 18.953125 -41.707031 18.9375 -38.144531 18.9375 -33.9375 L 18.859375 -21.046875 C 18.859375 -16.953125 18.882812 -13.488281 18.9375 -10.65625 C 19 -7.820312 19.085938 -6.113281 19.203125 -5.53125 L 24.90625 -4.125 L 24.734375 0 Z M 1.40625 0 "/></g></g></g><g fill="#000000" fill-opacity="1"><g transform="translate(651.650955, 566.453929)"><g><path d="M 23.671875 0.703125 C 19.578125 0.703125 15.984375 -0.128906 12.890625 -1.796875 C 9.796875 -3.460938 7.367188 -5.769531 5.609375 -8.71875 C 3.859375 -11.675781 2.984375 -15.054688 2.984375 -18.859375 C 2.984375 -23.179688 3.972656 -26.863281 5.953125 -29.90625 C 7.941406 -32.945312 10.546875 -35.253906 13.765625 -36.828125 C 16.984375 -38.410156 20.40625 -39.203125 24.03125 -39.203125 C 27.945312 -39.203125 31.378906 -38.378906 34.328125 -36.734375 C 37.285156 -35.097656 39.597656 -32.804688 41.265625 -29.859375 C 42.929688 -26.910156 43.765625 -23.535156 43.765625 -19.734375 C 43.765625 -15.867188 42.859375 -12.398438 41.046875 -9.328125 C 39.234375 -6.265625 36.820312 -3.828125 33.8125 -2.015625 C 30.800781 -0.203125 27.421875 0.703125 23.671875 0.703125 Z M 24.546875 -4.90625 C 26.015625 -4.90625 27.257812 -5.375 28.28125 -6.3125 C 29.300781 -7.25 30.085938 -8.625 30.640625 -10.4375 C 31.203125 -12.25 31.484375 -14.410156 31.484375 -16.921875 C 31.484375 -21.953125 30.675781 -26.046875 29.0625 -29.203125 C 27.457031 -32.359375 25.3125 -33.9375 22.625 -33.9375 C 20.457031 -33.9375 18.71875 -32.8125 17.40625 -30.5625 C 16.09375 -28.3125 15.4375 -25.253906 15.4375 -21.390625 C 15.4375 -18.296875 15.828125 -15.488281 16.609375 -12.96875 C 17.398438 -10.457031 18.484375 -8.484375 19.859375 -7.046875 C 21.234375 -5.617188 22.796875 -4.90625 24.546875 -4.90625 Z M 24.546875 -4.90625 "/></g></g></g><g fill="#000000" fill-opacity="1"><g transform="translate(698.38379, 566.453929)"><g><path d="M 21.21875 20 C 15.019531 20 10.179688 19.148438 6.703125 17.453125 C 3.222656 15.753906 1.484375 13.414062 1.484375 10.4375 C 1.484375 8.507812 2.519531 6.710938 4.59375 5.046875 C 6.675781 3.378906 9.5 2.046875 13.0625 1.046875 L 16.84375 1.40625 C 15.4375 2.394531 14.320312 3.53125 13.5 4.8125 C 12.6875 6.101562 12.28125 7.453125 12.28125 8.859375 C 12.28125 10.847656 13.125 12.378906 14.8125 13.453125 C 16.507812 14.535156 18.9375 15.078125 22.09375 15.078125 C 25.3125 15.078125 27.957031 14.390625 30.03125 13.015625 C 32.101562 11.648438 33.140625 9.941406 33.140625 7.890625 C 33.140625 6.429688 32.613281 5.332031 31.5625 4.59375 C 30.507812 3.863281 28.726562 3.382812 26.21875 3.15625 L 15 2.1875 L 14.203125 1.75 C 11.222656 1.75 8.914062 1.191406 7.28125 0.078125 C 5.644531 -1.023438 4.828125 -2.515625 4.828125 -4.390625 C 4.828125 -6.253906 5.742188 -7.988281 7.578125 -9.59375 C 9.421875 -11.207031 11.984375 -12.484375 15.265625 -13.421875 L 16.65625 -11.921875 C 15.957031 -11.515625 15.398438 -11.0625 14.984375 -10.5625 C 14.578125 -10.070312 14.375 -9.59375 14.375 -9.125 C 14.375 -8.414062 14.59375 -7.882812 15.03125 -7.53125 C 15.476562 -7.1875 16.140625 -6.957031 17.015625 -6.84375 L 30.515625 -5.53125 C 34.898438 -5.113281 38.144531 -3.96875 40.25 -2.09375 C 42.351562 -0.226562 43.40625 2.222656 43.40625 5.265625 C 43.40625 8.015625 42.441406 10.5 40.515625 12.71875 C 38.585938 14.9375 35.957031 16.703125 32.625 18.015625 C 29.289062 19.335938 25.488281 20 21.21875 20 Z M 21.65625 -10.34375 C 18.09375 -10.34375 14.976562 -10.941406 12.3125 -12.140625 C 9.65625 -13.335938 7.597656 -15.003906 6.140625 -17.140625 C 4.679688 -19.273438 3.953125 -21.742188 3.953125 -24.546875 C 3.953125 -27.410156 4.738281 -29.953125 6.3125 -32.171875 C 7.894531 -34.398438 10.046875 -36.15625 12.765625 -37.4375 C 15.484375 -38.726562 18.566406 -39.375 22.015625 -39.375 C 25.285156 -39.375 28.234375 -38.710938 30.859375 -37.390625 C 33.492188 -36.078125 35.554688 -34.3125 37.046875 -32.09375 C 38.535156 -29.875 39.28125 -27.359375 39.28125 -24.546875 C 39.28125 -21.804688 38.535156 -19.367188 37.046875 -17.234375 C 35.554688 -15.097656 33.476562 -13.414062 30.8125 -12.1875 C 28.15625 -10.957031 25.101562 -10.34375 21.65625 -10.34375 Z M 22.359375 -15.4375 C 24.117188 -15.4375 25.523438 -16.238281 26.578125 -17.84375 C 27.628906 -19.445312 28.15625 -21.625 28.15625 -24.375 C 28.15625 -27.351562 27.582031 -29.75 26.4375 -31.5625 C 25.300781 -33.375 23.796875 -34.28125 21.921875 -34.28125 C 20.109375 -34.28125 18.660156 -33.429688 17.578125 -31.734375 C 16.492188 -30.046875 15.953125 -27.800781 15.953125 -25 C 15.953125 -22.132812 16.535156 -19.820312 17.703125 -18.0625 C 18.878906 -16.3125 20.429688 -15.4375 22.359375 -15.4375 Z M 44.109375 -31.3125 L 32.265625 -32.453125 L 29.640625 -36.5625 L 44.109375 -38.328125 Z M 44.109375 -31.3125 "/></g></g></g><g fill="#000000" fill-opacity="1"><g transform="translate(743.889122, 566.453929)"><g><path d="M 21.21875 20 C 15.019531 20 10.179688 19.148438 6.703125 17.453125 C 3.222656 15.753906 1.484375 13.414062 1.484375 10.4375 C 1.484375 8.507812 2.519531 6.710938 4.59375 5.046875 C 6.675781 3.378906 9.5 2.046875 13.0625 1.046875 L 16.84375 1.40625 C 15.4375 2.394531 14.320312 3.53125 13.5 4.8125 C 12.6875 6.101562 12.28125 7.453125 12.28125 8.859375 C 12.28125 10.847656 13.125 12.378906 14.8125 13.453125 C 16.507812 14.535156 18.9375 15.078125 22.09375 15.078125 C 25.3125 15.078125 27.957031 14.390625 30.03125 13.015625 C 32.101562 11.648438 33.140625 9.941406 33.140625 7.890625 C 33.140625 6.429688 32.613281 5.332031 31.5625 4.59375 C 30.507812 3.863281 28.726562 3.382812 26.21875 3.15625 L 15 2.1875 L 14.203125 1.75 C 11.222656 1.75 8.914062 1.191406 7.28125 0.078125 C 5.644531 -1.023438 4.828125 -2.515625 4.828125 -4.390625 C 4.828125 -6.253906 5.742188 -7.988281 7.578125 -9.59375 C 9.421875 -11.207031 11.984375 -12.484375 15.265625 -13.421875 L 16.65625 -11.921875 C 15.957031 -11.515625 15.398438 -11.0625 14.984375 -10.5625 C 14.578125 -10.070312 14.375 -9.59375 14.375 -9.125 C 14.375 -8.414062 14.59375 -7.882812 15.03125 -7.53125 C 15.476562 -7.1875 16.140625 -6.957031 17.015625 -6.84375 L 30.515625 -5.53125 C 34.898438 -5.113281 38.144531 -3.96875 40.25 -2.09375 C 42.351562 -0.226562 43.40625 2.222656 43.40625 5.265625 C 43.40625 8.015625 42.441406 10.5 40.515625 12.71875 C 38.585938 14.9375 35.957031 16.703125 32.625 18.015625 C 29.289062 19.335938 25.488281 20 21.21875 20 Z M 21.65625 -10.34375 C 18.09375 -10.34375 14.976562 -10.941406 12.3125 -12.140625 C 9.65625 -13.335938 7.597656 -15.003906 6.140625 -17.140625 C 4.679688 -19.273438 3.953125 -21.742188 3.953125 -24.546875 C 3.953125 -27.410156 4.738281 -29.953125 6.3125 -32.171875 C 7.894531 -34.398438 10.046875 -36.15625 12.765625 -37.4375 C 15.484375 -38.726562 18.566406 -39.375 22.015625 -39.375 C 25.285156 -39.375 28.234375 -38.710938 30.859375 -37.390625 C 33.492188 -36.078125 35.554688 -34.3125 37.046875 -32.09375 C 38.535156 -29.875 39.28125 -27.359375 39.28125 -24.546875 C 39.28125 -21.804688 38.535156 -19.367188 37.046875 -17.234375 C 35.554688 -15.097656 33.476562 -13.414062 30.8125 -12.1875 C 28.15625 -10.957031 25.101562 -10.34375 21.65625 -10.34375 Z M 22.359375 -15.4375 C 24.117188 -15.4375 25.523438 -16.238281 26.578125 -17.84375 C 27.628906 -19.445312 28.15625 -21.625 28.15625 -24.375 C 28.15625 -27.351562 27.582031 -29.75 26.4375 -31.5625 C 25.300781 -33.375 23.796875 -34.28125 21.921875 -34.28125 C 20.109375 -34.28125 18.660156 -33.429688 17.578125 -31.734375 C 16.492188 -30.046875 15.953125 -27.800781 15.953125 -25 C 15.953125 -22.132812 16.535156 -19.820312 17.703125 -18.0625 C 18.878906 -16.3125 20.429688 -15.4375 22.359375 -15.4375 Z M 44.109375 -31.3125 L 32.265625 -32.453125 L 29.640625 -36.5625 L 44.109375 -38.328125 Z M 44.109375 -31.3125 "/></g></g></g><g fill="#000000" fill-opacity="1"><g transform="translate(789.394453, 566.453929)"><g><path d="M 1.3125 0 L 1.046875 -4.125 L 6.921875 -5.53125 C 6.984375 -5.757812 7.039062 -6.296875 7.09375 -7.140625 C 7.15625 -7.992188 7.210938 -9.046875 7.265625 -10.296875 C 7.328125 -11.554688 7.359375 -12.890625 7.359375 -14.296875 L 7.453125 -20.875 C 7.453125 -22.625 7.394531 -24.1875 7.28125 -25.5625 C 7.164062 -26.9375 6.960938 -28.382812 6.671875 -29.90625 L 0.796875 -31.125 L 0.796875 -35.078125 L 16.921875 -39.015625 L 19.296875 -37.53125 C 19.117188 -35.65625 18.984375 -33.769531 18.890625 -31.875 C 18.804688 -29.976562 18.765625 -27.832031 18.765625 -25.4375 L 18.765625 -14.375 C 18.765625 -12.445312 18.804688 -10.601562 18.890625 -8.84375 C 18.984375 -7.09375 19.117188 -5.988281 19.296875 -5.53125 L 25.078125 -4.125 L 24.8125 0 Z M 13.234375 -46.21875 C 10.835938 -46.21875 8.984375 -46.929688 7.671875 -48.359375 C 6.359375 -49.796875 5.703125 -51.445312 5.703125 -53.3125 C 5.703125 -55.1875 6.359375 -56.835938 7.671875 -58.265625 C 8.984375 -59.703125 10.835938 -60.421875 13.234375 -60.421875 C 15.628906 -60.421875 17.457031 -59.703125 18.71875 -58.265625 C 19.976562 -56.835938 20.609375 -55.1875 20.609375 -53.3125 C 20.609375 -51.445312 19.976562 -49.796875 18.71875 -48.359375 C 17.457031 -46.929688 15.628906 -46.21875 13.234375 -46.21875 Z M 13.234375 -46.21875 "/></g></g></g><g fill="#000000" fill-opacity="1"><g transform="translate(815.522755, 566.453929)"><g><path d="M 1.671875 0 L 1.40625 -4.03125 L 6.84375 -5.53125 C 6.894531 -5.757812 6.953125 -6.28125 7.015625 -7.09375 C 7.078125 -7.914062 7.132812 -8.953125 7.1875 -10.203125 C 7.25 -11.460938 7.28125 -12.828125 7.28125 -14.296875 L 7.359375 -20.953125 C 7.359375 -22.765625 7.300781 -24.328125 7.1875 -25.640625 C 7.070312 -26.960938 6.867188 -28.382812 6.578125 -29.90625 L 0.96875 -31.125 L 0.96875 -35.078125 L 16.40625 -39.015625 L 18.859375 -37.53125 L 18.328125 -32.359375 L 18.59375 -32.265625 C 20.40625 -34.609375 22.40625 -36.347656 24.59375 -37.484375 C 26.789062 -38.628906 29.085938 -39.203125 31.484375 -39.203125 C 33.992188 -39.203125 36.242188 -38.585938 38.234375 -37.359375 C 40.222656 -36.128906 41.785156 -34.328125 42.921875 -31.953125 C 44.066406 -29.585938 44.640625 -26.738281 44.640625 -23.40625 L 44.640625 -14.375 C 44.640625 -12.394531 44.664062 -10.539062 44.71875 -8.8125 C 44.78125 -7.082031 44.898438 -5.988281 45.078125 -5.53125 L 50.515625 -4.03125 L 50.25 0 L 28.234375 0 L 27.96875 -4.03125 L 32.96875 -5.53125 C 33.082031 -6.113281 33.171875 -6.867188 33.234375 -7.796875 C 33.296875 -8.734375 33.335938 -9.785156 33.359375 -10.953125 C 33.390625 -12.128906 33.40625 -13.242188 33.40625 -14.296875 L 33.40625 -21.65625 C 33.40625 -23.882812 33.066406 -25.679688 32.390625 -27.046875 C 31.722656 -28.421875 30.847656 -29.429688 29.765625 -30.078125 C 28.691406 -30.722656 27.476562 -31.046875 26.125 -31.046875 C 24.664062 -31.046875 23.289062 -30.722656 22 -30.078125 C 20.71875 -29.429688 19.582031 -28.492188 18.59375 -27.265625 L 18.59375 -14.375 C 18.59375 -12.394531 18.632812 -10.539062 18.71875 -8.8125 C 18.8125 -7.082031 18.941406 -5.988281 19.109375 -5.53125 L 24.375 -4.03125 L 24.109375 0 Z M 1.671875 0 "/></g></g></g></svg>